<svg xmlns="http://www.w3.org/2000/svg" viewBox="0 0 51.88 50"><defs><style>.cls-1{fill:#ff3011;}.cls-2{fill:#ffbc00;}.cls-3{fill:#fff;}.cls-4{fill:#00ad46;}.cls-5{fill:#2f83ff;}</style></defs><title>Asset 6 1</title><g id="Layer_2" data-name="Layer 2"><g id="Layer_1-2" data-name="Layer 1"><path class="cls-1" d="M36.69,16.09A4.88,4.88,0,0,0,33,13.68c-3.55-5.55-6.88-9.22-8-8.6l-.11.09,0,0-.07.09v0a.73.73,0,0,0-.05.12v0a1.13,1.13,0,0,0,0,.16.07.07,0,0,1,0,0c0,.06,0,.13,0,.2s0,0,0,0,0,.16,0,.24h0a2.47,2.47,0,0,0,0,.27h0c0,.09,0,.19,0,.29h0c-1.24,2.92-5.31,9.12-12.41,15.5L1.4,28.52a2.82,2.82,0,0,0-1,3.84l4.07,7a2.82,2.82,0,0,0,3.84,1l10.95-6.32c9.07-3,16.47-3.38,19.63-3h0l.23.17h0l.22.15h0l.21.11h0l.18.08h0l.16,0h0l.13,0h.19l.13-.05c1.08-.62-.44-5.34-3.47-11.19A4.89,4.89,0,0,0,36.69,16.09Z"/><path class="cls-2" d="M20.36,31.22l-4.94-8.55A60.48,60.48,0,0,0,25.25,10.9a71,71,0,0,0,4.53,9.18,70.92,70.92,0,0,0,5.69,8.51A60.37,60.37,0,0,0,20.36,31.22Z"/><path class="cls-3" d="M36.94,24.33l.23.52.13.3.16.37.12.29.14.35.11.28.13.34.1.25.13.34.07.21c0,.13.09.25.13.37l0,.13c.06.17.11.33.16.48a57.83,57.83,0,0,1-6.73-9.68,57.9,57.9,0,0,1-5-10.67l.34.38.08.1.26.31.14.16.23.28.16.2.23.29.18.23.24.31.19.24.25.34.18.25.35.49.21.3.34.49.19.28.29.43.21.32.15.23a4.82,4.82,0,0,0-1.1.46l4.9,8.48a4.82,4.82,0,0,0,1-.72l.13.25.17.35.22.46.15.32.25.52Z"/><path class="cls-4" d="M26.21,46.89a.75.75,0,0,1-.12,1.3l-2.82,1.63a1.7,1.7,0,0,1-1.82-.17l-8-6.89a1.56,1.56,0,0,0-1.64-.28A1,1,0,0,1,10.49,42a1.11,1.11,0,0,1,.43-1.51L17,36.94a1.11,1.11,0,0,1,1.52.38,1,1,0,0,1-.31,1.44c-.47.27-.48.83,0,1.23l.48.42a1.19,1.19,0,0,0,1.5.15,1,1,0,0,1,1.38.23c.4.44.48,1,.18,1.3s-.16.82.3,1.22Z"/><path class="cls-5" d="M48.36,11.28,41.85,15a1.67,1.67,0,0,1-1.67-2.88l6.51-3.76a1.67,1.67,0,0,1,1.67,2.88Z"/><path class="cls-5" d="M51.05,22.95a1.66,1.66,0,0,1-.95.22l-7.5-.52a1.67,1.67,0,0,1,.23-3.32l7.5.52a1.67,1.67,0,0,1,.72,3.1Z"/><path class="cls-5" d="M36.3,9.86A1.67,1.67,0,0,1,34,7.69L37.27.93a1.67,1.67,0,0,1,3,1.46L37,9.15A1.66,1.66,0,0,1,36.3,9.86Z"/></g></g></svg>