<svg xmlns="http://www.w3.org/2000/svg" viewBox="0 0 18.23 17.57"><defs><style>.cls-1{fill:#ff3011;}</style></defs><title>Asset 13</title><g id="Layer_2" data-name="Layer 2"><g id="Layer_1-2" data-name="Layer 1"><path class="cls-1" d="M12.89,5.65a1.72,1.72,0,0,0-1.29-.85c-1.25-1.95-2.42-3.24-2.8-3l0,0h0l0,0h0l0,0h0V2h0v.07h0s0,.05,0,.08h0a.87.87,0,0,0,0,.1h0s0,.07,0,.1h0A18.17,18.17,0,0,1,4.34,7.8L.49,10a1,1,0,0,0-.36,1.35l1.43,2.47a1,1,0,0,0,1.35.36L6.76,12a18.19,18.19,0,0,1,6.9-1.05h0l.08.06h0l.08.05h0l.07,0h0l.06,0h0l.06,0h.12l0,0C14.58,10.91,14,9.25,13,7.2A1.72,1.72,0,0,0,12.89,5.65ZM7.16,11,5.42,8A21.26,21.26,0,0,0,8.87,3.83a24.94,24.94,0,0,0,1.59,3.23,24.92,24.92,0,0,0,2,3A21.22,21.22,0,0,0,7.16,11ZM13,8.55l.08.18,0,.1.06.13,0,.1,0,.12,0,.1,0,.12,0,.09,0,.12,0,.07,0,.13,0,0,.06.17a20.32,20.32,0,0,1-2.37-3.4A20.35,20.35,0,0,1,9.44,2.88L9.56,3l0,0,.09.11,0,.06.08.1.06.07.08.1.06.08.08.11.07.09.09.12.06.09.12.17.07.11.12.17.07.1.1.15.08.11.05.08a1.69,1.69,0,0,0-.39.16l1.72,3a1.7,1.7,0,0,0,.33-.25l0,.09L12.7,8l.08.16.05.11.09.18ZM9.21,16.48a.26.26,0,0,1,0,.46l-1,.57a.6.6,0,0,1-.64-.06L4.73,15a.55.55,0,0,0-.58-.1.36.36,0,0,1-.47-.17.39.39,0,0,1,.15-.53L6,13a.39.39,0,0,1,.53.13.37.37,0,0,1-.11.51c-.17.1-.17.29,0,.43l.17.15a.42.42,0,0,0,.53.05.35.35,0,0,1,.48.08c.14.16.17.36.06.46s-.06.29.11.43ZM17,4,14.71,5.28a.59.59,0,0,1-.59-1l2.29-1.32A.59.59,0,0,1,17,4Zm.95,4.1a.58.58,0,0,1-.33.08L15,8a.59.59,0,0,1,.08-1.17L17.69,7a.59.59,0,0,1,.25,1.09Zm-5.18-4.6a.59.59,0,0,1-.82-.76L13.1.33a.59.59,0,0,1,1.05.51L13,3.22A.58.58,0,0,1,12.76,3.46Z"/></g></g></svg>