<svg xmlns="http://www.w3.org/2000/svg" viewBox="0 0 18.64 17.57"><defs><style>.cls-1{fill:#ffbc00;}</style></defs><title>Asset 15</title><g id="Layer_2" data-name="Layer 2"><g id="Layer_1-2" data-name="Layer 1"><path class="cls-1" d="M11.81,16.62a.35.35,0,0,1-.35.35h-1l-.05.09a1.18,1.18,0,0,1-.91.51H9.11a1.18,1.18,0,0,1-.91-.51L8.15,17h-1a.35.35,0,0,1,0-.7h4.29A.35.35,0,0,1,11.81,16.62ZM4.68,9.33a4.64,4.64,0,1,1,9.28,0c0,2.49-1.47,3.21-2.24,5H6.93C6.15,12.54,4.68,11.72,4.68,9.33Zm4.64-1A.42.42,0,0,0,9,8.48c-.05.07-.31.36-.54.36S8.1,8.65,8,8.49a.71.71,0,0,0-.55-.36c-.26,0-.57.16-.57.9,0,1.19.72,4.2,2.45,4.21h0c1.72,0,2.45-3,2.45-4.21,0-.74-.31-.9-.57-.9a.71.71,0,0,0-.55.36c-.11.16-.28.35-.46.35s-.47-.27-.54-.36A.42.42,0,0,0,9.32,8.3ZM8.44,9.67h0a1.18,1.18,0,0,1-.72-.25,5.82,5.82,0,0,0,.83,2.44,1,1,0,0,0,.77.54,1,1,0,0,0,.75-.52,5.83,5.83,0,0,0,.84-2.46,1.18,1.18,0,0,1-.71.25,1.4,1.4,0,0,1-.88-.35A1.4,1.4,0,0,1,8.44,9.67Zm3,5.19H7.24a.42.42,0,0,0,0,.84H11.4a.42.42,0,0,0,0-.84ZM10,2.8V.67a.67.67,0,1,0-1.33,0V2.8A.67.67,0,1,0,10,2.8Zm0,0V.67a.67.67,0,1,0-1.33,0V2.8A.67.67,0,1,0,10,2.8ZM5.18,5.18a.67.67,0,0,0,0-.94L3.67,2.73a.67.67,0,0,0-.94.94L4.24,5.18a.67.67,0,0,0,.94,0ZM3.47,9.32a.67.67,0,0,0-.67-.67H.67A.67.67,0,1,0,.67,10H2.8A.67.67,0,0,0,3.47,9.32Zm.21,6.59L5.18,14.4a.67.67,0,1,0-.94-.94L2.73,15a.67.67,0,1,0,.94.94Zm12.24,0a.67.67,0,0,0,0-.94L14.4,13.46a.67.67,0,1,0-.94.94L15,15.91a.67.67,0,0,0,.94,0Zm2.73-6.59A.67.67,0,0,0,18,8.66H15.84a.67.67,0,0,0,0,1.33H18A.67.67,0,0,0,18.64,9.32ZM14.4,5.18l1.51-1.51A.67.67,0,1,0,15,2.73L13.46,4.24a.67.67,0,0,0,.94.94Z"/></g></g></svg>