<svg xmlns="http://www.w3.org/2000/svg" viewBox="0 0 15.51 17.57"><defs><style>.cls-1{fill:#95a5a6;fill-rule:evenodd;}</style></defs><title>Asset 14</title><g id="Layer_2" data-name="Layer 2"><g id="Layer_1-2" data-name="Layer 1"><path class="cls-1" d="M15.51,12a1.15,1.15,0,0,1-.36.65,1.2,1.2,0,0,0-.11.13l-1.65,1.59-.29.22c-.18.15-.38.27-.58.42l-1.24.76A16.38,16.38,0,0,1,8.5,16.93,12.8,12.8,0,0,1,5,17.57c-.41,0-1-1-1.19-1.35a23.29,23.29,0,0,1-2.07-4.3,5.76,5.76,0,0,1-.31-1,3.46,3.46,0,0,0,.65-.22,5.38,5.38,0,0,1,.66-.2c0,.1.1.28.14.39l.14.38a23.41,23.41,0,0,0,2,4.19,5.16,5.16,0,0,1,.41.66,8.9,8.9,0,0,0,1.51-.25,2.43,2.43,0,0,1,.49-.1L7,15.25a6.82,6.82,0,0,1-.39-.61c-.07-.12-.1-.18-.17-.31l-.33-.66a1.63,1.63,0,0,1-.16-.35c.12,0,.89.73,1.07.85a4.69,4.69,0,0,0,2.2,1c.17,0,1.53-.73,1.62-.76-.09-.14-.22-.22-.33-.36l-.15-.2c-.06-.08-.09-.1-.15-.2a4.45,4.45,0,0,1-.51-.87,2.36,2.36,0,0,1,.18.17,4.11,4.11,0,0,0,1.8.85c.14,0,.31-.14.46-.25l.42-.33c.16-.12.73-.58.77-.74a10.71,10.71,0,0,1-3-.84,8.34,8.34,0,0,1-.88-.43l-.19-.12-.58-.38a7.5,7.5,0,0,1-.7-.6A5,5,0,0,1,6.81,8.63l.88-.49A1.41,1.41,0,0,1,8,8c.09.14.16.28.26.43a4.92,4.92,0,0,0,.66.78,8.6,8.6,0,0,0,4.53,2l.65.08c.21,0,.49,0,.68,0,.43,0,.72.22.72.73Zm-8-5c0-.26-.31-.58-.49-.75a2.16,2.16,0,0,0-2.38-.36l-1.33.59a10.77,10.77,0,0,0-1.62.79A2.16,2.16,0,0,0,1,9.87a1.22,1.22,0,0,0,.42-.16l4.43-2c.26-.1,1.45-.68,1.61-.7ZM3.17,3.53c-.07-.12-.1-.22-.17-.34l-.37-.66c-.07-.12-.1-.22-.17-.34S2.35,2,2.28,1.85l-.54-1C1.42.19,1.38,0,.93,0S0,.36,0,.69C0,.85.84,3.07,1,3.44s.17.44.25.68.15.45.24.69L2,6.16l2.1-.93ZM9.63,7.6A1.65,1.65,0,0,0,10.12,9a1.72,1.72,0,0,0,2.29.1l.31-.31a1.72,1.72,0,0,0-.07-2.08,1,1,0,0,0-.3-.29A1.76,1.76,0,0,0,10.6,6.2a2.12,2.12,0,0,0-.47.33,1.69,1.69,0,0,0-.5,1.08ZM8.36,3.81V4a1,1,0,0,0,2,.26,1,1,0,0,0-.71-1.38,1,1,0,0,0-.63,0,1,1,0,0,0-.63.88ZM10.9,1.38a.69.69,0,0,0,1.37.1A.65.65,0,0,0,12.06.9a.69.69,0,0,0-1.16.47Z"/></g></g></svg>