<?xml version="1.0" encoding="utf-8"?>
<!-- Generator: Adobe Illustrator 20.1.0, SVG Export Plug-In . SVG Version: 6.00 Build 0)  -->
<svg version="1.1" id="Layer_1" xmlns="http://www.w3.org/2000/svg" xmlns:xlink="http://www.w3.org/1999/xlink" x="0px" y="0px"
	 viewBox="0 0 33.8 34" style="enable-background:new 0 0 33.8 34;" xml:space="preserve">
<title>Asset 3</title>
<g id="Layer_2">
	<g id="Layer_1-2">
		<g>
			<path d="M30.1,34C30.1,34,30,34,30.1,34L3.7,34c-2,0-3.7-1.7-3.7-3.7V14.4c0-1.1,0.5-2.1,1.4-2.8L13.5,1.2c2-1.7,4.9-1.7,6.9,0
				l12.1,10.3c0.8,0.7,1.3,1.7,1.4,2.8v15.9c0,1-0.4,1.9-1.1,2.6C32,33.6,31.1,34,30.1,34z M16.9,2c-0.8,0-1.5,0.3-2.2,0.8L2.6,13.1
				C2.2,13.4,2,13.9,2,14.4v15.9C2,31.2,2.8,32,3.7,32H30c0,0,0,0,0,0l0,1l0.1-1c0.5,0,0.9-0.2,1.2-0.5c0.3-0.3,0.5-0.8,0.5-1.2
				V14.4c0-0.5-0.2-1-0.6-1.3L19.1,2.8C18.4,2.2,17.7,2,16.9,2z"/>
		</g>
		<g>
			<path d="M16.8,24.2c-0.2,0-0.3,0-0.5-0.1l-13-7.2c-0.5-0.3-0.7-0.9-0.4-1.4c0.3-0.5,0.9-0.7,1.4-0.4l12.5,7l12.5-7
				c0.5-0.3,1.1-0.1,1.4,0.4c0.3,0.5,0.1,1.1-0.4,1.4l-13,7.2C17.1,24.2,16.9,24.2,16.8,24.2z"/>
		</g>
		<g>
			<path d="M24.9,19.4c-0.6,0-1-0.4-1-1v-6.3H9.8v6.3c0,0.6-0.4,1-1,1s-1-0.4-1-1v-7.3c0-0.6,0.4-1,1-1h16.1c0.6,0,1,0.4,1,1v7.3
				C25.9,19,25.5,19.4,24.9,19.4z"/>
		</g>
		<g>
			<path d="M21.4,15.8h-9c-0.6,0-1-0.4-1-1s0.4-1,1-1h9c0.6,0,1,0.4,1,1S21.9,15.8,21.4,15.8z"/>
		</g>
		<g>
			<path d="M21.4,18.4h-9c-0.6,0-1-0.4-1-1s0.4-1,1-1h9c0.6,0,1,0.4,1,1S21.9,18.4,21.4,18.4z"/>
		</g>
	</g>
</g>
</svg>
