<?xml version="1.0" encoding="utf-8"?>
<!-- Generator: Adobe Illustrator 21.0.2, SVG Export Plug-In . SVG Version: 6.00 Build 0)  -->
<svg version="1.1" id="Layer_1" xmlns="http://www.w3.org/2000/svg" xmlns:xlink="http://www.w3.org/1999/xlink" x="0px" y="0px"
	 viewBox="0 0 1920 450" style="enable-background:new 0 0 1920 450;" xml:space="preserve">
<style type="text/css">
	.st0{fill:#FFFFFF;}
	.st1{fill:#E9E9EA;}
	.st2{fill:#292C31;}
</style>
<rect class="st0" width="1920" height="450"/>
<path class="st1" d="M1920,226h-14v21h-10v-44h-12v23h-10v-54h-12v-24h-4v-28h-4v28h-8v37h-8v-18h-11v-17h-6v17h-9v23h-52v45.4
	l-8.1-73.1l-8.8,70.9l-2.1-3.9V217h-14v14h-16v-27.2l-3-6.8h-16v46h-12v-46h-5v-73h-4v-20h-3v-5h-7V68h-2v31h-4v5h-3v22h-5v57h-9
	v-41h-7v-16h-35v16h-7v8h-1.5l1.5,2v9h-1v74h-6v-5h-8v-17h-5v22h-8v-24.8l-9.8-30.2h-9l-10.2,37.7V272h-3v-15h-4V102h-5V50h-7V30h-8
	v20h-6v44.6l-7,6.7V85h-4v20.3l-1,0.4V101h-19v9h-7v55h-21v-19.1l-13-0.6l-1.1,1.5l-18.6-0.5l-0.5,6.4l-9.1-0.5l-1.6-4.3l-3.2,0.5
	v4.8l-1.1,1.6l0.8,5.9l-3.6,0.6l-0.5,9.2l-2.1,4.1l1.1,7.4h-7.6v-10h-3v-7h-2V56h-6v-0.8l-0.5,0.1l-14.5,4.5V46h-2v14.3l-14,2.5
	v93.7l-4,4.3v5.9l-3.9,3.8l-1.7,1.6h-3.4v-2.2l4-4.8h-16l-5.6,6h4.6v3h-6v22h-3v-21h-5v-5.7l-10-9.6l-9,8.6V182h-7v19.9l-9,9.4v5.7
	h-5V104h-40v63h-6.9l-0.1-9h-26.8l-8.9,75H1159V132h-27v51h-33v-37h-44v82h-2v5h-3v15h-3v-54h-5v-18h-3v-7.8l-24.1-58.8L995,169.5
	v5.5h-3v19h-5v69h-6v-35h-3.9l-11.2-122.7L954,187.8v-0.4c0,0-4.9-13.9-12.4-13.5c-7.6,0.4-14.9,3.5-17.6,10.9
	c-2.6,7.4-2.4,8.3-2.4,8.3l-7.6,1.3v6.7h-3v16h-3v58h-2.5l0.7,7h-5.6l-4.3-33l-4.3,33h-7v-9h-9v7h-4v-4h-4V154h-24c0,0-1,83,0,83
	c-1,0-6,0-6,0v5.1l-4.8-7l-5.2,7.6V282h-4v10h-4v11h-3v16h-4.6l-3.1,5H804v-6h-1.8l-0.7-94H793v-18h-6v-6.1l-5.7-8.9h-16.9
	l-10.4,9.5v3.8l-4.2,4.1l1.8,7.6H747v9h-2v-44h-14v-45h-24V81h-18.5l-1.2-44.3l-3.3-21V81h-10v55h-19v39h-17v4h-2v2h-4V91h-27v12h-8
	v18h-10v31h-8v-37h-13v37h-8v-3.9c0,0-4-9.5-8-11.4V125h-10v14.3c-3,1.5-3,4.6-3.9,7.4c-1.1,3.6-0.7,6.3-0.7,7.3H530v-16h-7v16h-1
	v-35h-13v-5h-5V84h-3v35h-11v-12h-5v12h-9c0,0-1,73,0,73h-4v2.3l-0.1-0.2l-2.3-4.2l-1.9,3.3l-1.1-0.2c0,0,0.5-0.9-2.1-8.3
	c-1.2-3.3-4.6-5.7-6.6-7.4V161h-13v-18h-54v-40h-14V55h-8V0h-2v55h-4V36h-3v19h-8v48h-19v17.9V143h-8v38h-2v-9h-0.8l-0.4-6.1l-4.8-3
	v-3.3l-4.4-7.6h-12.7l-7.9,7.1v4.9h-4v17h-3.3l-1.3,57.9l-1.4,9.7V263h-3v4l0,0l-2.3-3H270v-15h-3v-10h-3v-7h-3v-35.4l-4.2-6.7
	L253,196v-4c0,0-3,0-4,0c1,0,0-73,0-73h-18v107h-2v3h-4v-5h-7v7h-1l-3.2-28.9l-3.2,28.9h-4.2l0.5-5H202v-52h-2v-14h-4v-5.8l-3.7-1.1
	c0,0,1.5-0.8-0.5-7.2c-2-6.5-8.5-9.1-14.1-9.5C172,136,167,148.2,167,148.2v6.9h-7v9h-5v20h-8v31h-5v-61h-4v-16h-2v-5.5l-16.6-15.2
	L103,131.3v6.7h-2v16h-3v47h-3v-12h-2v-5h-4v-5h-1v-4H63v4h-2v4h-2v6h-1.7L55,201.7V226h-7v20h-7v-20H16v21H0v202h1920V226z
	 M1360,86.8l-14,1.9l-0.8-21l14.8-2.5V86.8z"/>
<path class="st2" d="M1908,388v6h-6v-11h-25v-33h-10v-10h-16v9h-8v32h-13v-8h-1v-22h-18v-62h-2v-6h-4v-7h-7v7h-3v6h-4v48h-11v38.3
	l-1.1-1.2l-4.9,5v6h-6v-9h-10v-19h-7v-8h-14v8h-10v12h-12v-9h-17.9l0.1,9H1666v-11h-29v-48h-7v-6h-8v-12h-6v12h-5v6h-7v66h-3.4h-1.6
	V373l-8.8-5.2l-9.2,5.1v3.3h-2v5h-1v16h-2v-6.4v0.4h-1v-1h-2v-3h-6v-10.4V360h-19v-7h-7v7h-11v23h-13v-34h-10v-10h-16v10h-8v32h-13
	v-8h-14v11h-8v-29h-6v-17h-3v17h-9v28.9l-6-0.6v-5.8l-4.7-4.4l-5.3,5v6h-6v-8h-3v-20h-8v-8h-3v7h-8v-15h-10v15h-12v-35h-10v-27
	h-17.1l0.1,29h-5.1l0.2,9h-6.2l-3.9,3.9v4.1h-1v5h-1v2.8l-2.6,0.6l0.4,54.6h-2.9v2h-0.9l-1.3-2.6l-3.8-0.1V393h-1v-1.9V386h-1v-3h-1
	v-18h0.7l-0.1-3.4l-2.3-3.7l-0.1-1.6l-0.7-0.2l-0.4,1.6l-2.1,2.7V357h-3v-12h-1v-4.8V340h0.2l-0.8-0.9l-1.7-13.6l-1.4,14.4h-0.5
	l-0.1,1.8l-1.1-1l-1.6-0.1V357h-1v21h-1v1.4v2.6h-1v-1h-1v-3h-1.7l-0.1,4.2l-1.2-0.3v-1.5l-0.9-0.2l-1.6-5.2v-1.4l-0.3-0.1l-0.4-2.1
	l-0.8-0.1v2.3l-1,0.1v1l-0.1,7.4h-1.7l-0.1-4h-1.8l-1.2-33.7l-2.2-0.7v-8.4V335v-2.9l-2.3-0.8l0.5-3.1l-1.4-2.9l-1.5-31.2l-18.2,0.7
	l0.3,28.1h-8.5v-2h-2v-3l-8.3-9.8l-8.7,9.5v3.3h-1v11h-2v32h-1v-9h-2v-5.8V348h-3v-3h-4v-19h-3v-14c0,0-5.1-1.6-10.9-2
	c-5.8-0.3-14.1,2-14.1,2v60h-12v3h0.6v1h-3.6v5h-10v2h-1v-56.1c0,0-12.9-2-22-1.7s-17,1.7-17,1.7V340h-4v16h-9v3h-2v3h-1v2h-2v9h-3
	v-27h-2v-10h-2v-4l-13.8-8.5l-13.2,8.7v3.7h-2v1h-11.9l-4.4-78.7l-22.8,0.2l-3.4,80.4l-2.5,2.5l-0.6,2.7l-5.5,0.7v2.6l-1,0.2v7.5
	l-1,0.8l0.7,30.1h-2.8l-0.1,4h-2.6l-3.2-7.3v-0.9l-1-0.1v-2v0.1l0.3,1.9l-0.3,0.1v1.2l-3,4.6l-1.9,0.2v1.3l-1.2,0.4l0.4-3.6H988v2
	h-1v2h-2V386v-1h-3v-18h-1v-14.4l-0.8-0.1l-0.3,1.6l0.1-1.1h-0.8l-2.2-13.4l-2.7,12.6l-1.2,0.8H970v1h-1v1.9V367h-3v3l-2.7-2.4
	l-0.1-1.4l-1,0.1l-0.2,1.4l-3.5,3.8l-0.1,3.4H957v15h-1v4h-3v4h-1v0.5v7.9l-4.6,0.7l-0.6,2.9H943v-3h-2v-48h-6v-4h-1v-4h-2v-3.7
	l-3.6-3.3h-9.7l0.3-7h-7.9l0.2-27H880v25h-14v29h-17v-11h-17v13h-11v-7h-7v7h-10.9H772v24.5l-9,0.4v-25h-14v-16h-4v16h-11v25h-11
	v-10h-22v6h-20v-28h-10V243h-19v-17h-15v17h-9v117h-1v30h-6v-78h-18v58h-13v-6h0.2h-10.1H568v6h-7v-28h-18v-6h-9v6h-19v20h-9v-54
	h-51v13h-4v5h-9v42h-47v10h-45.4l0.1-8H319v8h-19v-11h-15v-8h-22v8h-10v18h-17v7h-9v-5.3l-8-4.4l-2,1.1V349h-15v-44h-7v-4h-6v-6h-10
	v6h-5v4h-6v58h-27v19h-1v6h-20v-26h-12v-9H83v9H66v29H29v9H0v50h1166h4.4h5.7h1.7h730.9h11.3v-18.4v-38.5V388H1908z"/>
</svg>
