<?xml version="1.0" encoding="utf-8"?>
<!-- Generator: Adobe Illustrator 21.0.2, SVG Export Plug-In . SVG Version: 6.00 Build 0)  -->
<svg version="1.1" id="Layer_1" xmlns="http://www.w3.org/2000/svg" xmlns:xlink="http://www.w3.org/1999/xlink" x="0px" y="0px"
	 viewBox="0 0 1920.6 250" style="enable-background:new 0 0 1920.6 250;" xml:space="preserve">
<style type="text/css">
	.st0{fill:#FFFFFF;}
	.st1{fill:#292C31;}
</style>
<rect x="0.6" class="st0" width="1920" height="250"/>
<path class="st1" d="M1908,188v6h-6v-11h-25v-33h-10v-10h-16v9h-8v32h-13v-8h-1v-22h-18V89h-2v-6h-4v-7h-7v7h-3v6h-4v48h-11v38.3
	l-1.1-1.2l-4.9,5v6h-6v-9h-10v-19h-7v-8h-14v8h-10v12h-12v-9h-17.9l0.1,9H1666v-11h-29V110h-7v-6h-8V92h-6v12h-5v6h-7v66h-3.4h-1.6
	v-3.1l-8.8-5.2l-9.2,5.1v3.3h-2v5h-1v16h-2v-6.4v0.4h-1v-1h-2v-3h-6v-10.4V160h-19v-7h-7v7h-11v23h-13v-34h-10v-10h-16v10h-8v32h-13
	v-8h-14v11h-8v-29h-6v-17h-3v17h-9v28.9l-6-0.6v-5.8l-4.7-4.4l-5.3,5v6h-6v-8h-3v-20h-8v-8h-3v7h-8v-15h-10v15h-12V120h-10V93h-17.1
	l0.1,29h-5.1l0.2,9h-6.2l-3.9,3.9v4.1h-1v5h-1v2.8l-2.6,0.6l0.4,54.6h-2.9v2h-0.9l-1.3-2.6l-3.8-0.1V193h-1v-1.9V186h-1v-3h-1v-18
	h0.7l-0.1-3.4l-2.3-3.7l-0.1-1.6l-0.7-0.2l-0.4,1.6l-2.1,2.7V157h-3v-12h-1v-4.8V140h0.2l-0.8-0.9l-1.7-13.6l-1.4,14.4h-0.5
	l-0.1,1.8l-1.1-1l-1.6-0.1V157h-1v21h-1v1.4v2.6h-1v-1h-1v-3h-1.7l-0.1,4.2l-1.2-0.3v-1.5l-0.9-0.2l-1.6-5.2v-1.4l-0.3-0.1l-0.4-2.1
	l-0.8-0.1v2.3l-1,0.1v1l-0.1,7.4h-1.7l-0.1-4h-1.8l-1.2-33.7l-2.2-0.7v-8.4V135v-2.9l-2.3-0.8l0.5-3.1l-1.4-2.9l-1.5-31.2l-18.2,0.7
	l0.3,28.1h-8.5v-2h-2v-3l-8.3-9.8l-8.7,9.5v3.4h-1v11h-2v32h-1v-9h-2v-5.8V148h-3v-3h-4v-19h-3v-14c0,0-5.1-1.6-10.9-2
	c-5.8-0.3-14.1,2-14.1,2v60h-12v3h0.6v1h-3.6v5h-10v2h-1v-56.1c0,0-12.9-2-22-1.7s-17,1.7-17,1.7V140h-4v16h-9v3h-2v3h-1v2h-2v9h-3
	v-27h-2v-10h-2v-4l-13.8-8.5l-13.2,8.7v3.7h-2v1h-11.9l-4.4-78.7l-22.8,0.2l-3.4,80.4l-2.5,2.5l-0.6,2.7l-5.5,0.7v2.6l-1,0.2v7.5
	l-1,0.8l0.7,30.1h-2.8l-0.1,4h-2.6l-3.2-7.3v-0.9l-1-0.1v-2v0.1l0.3,1.9l-0.3,0.1v1.2l-3,4.6l-1.9,0.2v1.3l-1.2,0.4l0.4-3.6H988v2
	h-1v2h-2V186v-1h-3v-18h-1v-14.4l-0.8-0.1l-0.3,1.6l0.1-1.1h-0.8l-2.2-13.4l-2.7,12.6l-1.2,0.8H970v1h-1v1.9V167h-3v3l-2.7-2.4
	l-0.1-1.4l-1,0.1l-0.2,1.4l-3.5,3.8l-0.1,3.4H957v15h-1v4h-3v4h-1v0.5v7.9l-4.6,0.7l-0.6,2.9H943v-3h-2v-48h-6v-4h-1v-4h-2v-3.7
	l-3.6-3.3h-9.7l0.3-7h-7.9l0.2-27H880v25h-14v29h-17v-11h-17v13h-11v-7h-7v7h-10.9H772v24.5l-9,0.4v-25h-14v-16h-4v16h-11v25h-11
	v-10h-22v6h-20v-28h-10V43h-19V26h-15v17h-9v117h-1v30h-6v-78h-18v58h-13v-6h0.2h-10.1H568v6h-7v-28h-18v-6h-9v6h-19v20h-9v-54h-51
	v13h-4v5h-9v42h-47v10h-45.4l0.1-8H319v8h-19v-11h-15v-8h-22v8h-10v18h-17v7h-9v-5.3l-8-4.4l-2,1.1V149h-15v-44h-7v-4h-6v-6h-10v6
	h-5v4h-6v58h-27v19h-1v6h-20v-26h-12v-9H83v9H66v29H29v9H0v50h1166h4.4h5.7h1.7h730.9h11.9h-0.6v-18.4v-38.5V188H1908z"/>
</svg>
