<svg xmlns="http://www.w3.org/2000/svg" viewBox="0 0 56.91 50"><defs><style>.cls-1{fill:#ff3011;fill-rule:evenodd;}.cls-2{fill:#fff;}</style></defs><title>Asset 7</title><g id="Layer_2" data-name="Layer 2"><g id="Layer_1-2" data-name="Layer 1"><path class="cls-1" d="M28.45,7.32C19-6.91,0,1.42,0,16.92c0,10.48,9.47,18,16.6,23.6C24,46.37,26.08,47.63,28.45,50c2.37-2.37,4.35-3.75,11.86-9.48C47.54,35,56.91,27.29,56.91,16.8,56.91,1.42,37.94-6.91,28.45,7.32Z"/><path class="cls-2" d="M24.31,12.24a13.58,13.58,0,0,0-7.65,6.7,13.36,13.36,0,0,0-1.18,3.4A13.51,13.51,0,0,0,25.23,38a14.45,14.45,0,0,0,6.91.07,11.91,11.91,0,0,0,8.95-8.48,15.85,15.85,0,0,0,.34-7.17H28.73v5.27h7.36a6.36,6.36,0,0,1-2.7,4.17,7.73,7.73,0,0,1-3,1.18,8.9,8.9,0,0,1-3.22,0,8,8,0,0,1-3-1.3,8.35,8.35,0,0,1-3.09-4.14,8.19,8.19,0,0,1,0-5.25,8.43,8.43,0,0,1,2-3.19,7.94,7.94,0,0,1,8-2.08A7.27,7.27,0,0,1,34,18.83l2.48-2.48c.44-.44.89-.87,1.31-1.33a13.16,13.16,0,0,0-4.35-2.69A13.62,13.62,0,0,0,24.31,12.24Z"/></g></g></svg>