<svg xmlns="http://www.w3.org/2000/svg" viewBox="0 0 17.57 17.57"><defs><style>.cls-1{fill:#2c3e50;}</style></defs><title>Asset 10</title><g id="Layer_2" data-name="Layer 2"><g id="Layer_1-2" data-name="Layer 1"><path class="cls-1" d="M8.79,0a8.79,8.79,0,1,0,8.79,8.79A8.79,8.79,0,0,0,8.79,0Zm2.67,12.5A5.2,5.2,0,0,1,10,14.22c-1,.76-2.9,1.73-4,1s.68-4.3.68-4.3c.21-.4,1.69-3.52,1.46-3.69S6,9.21,5.38,8.86,6.72,7,7.11,6.7,9.88,5,11,6.25a1.35,1.35,0,0,1,.14,1.37c-.22.65-1.3,3.31-1.3,3.31s-.27.67-.5,1.15-.52,1.36-.19,1.57c.71.46,1.86-2.23,2.41-1.86C11.74,11.93,11.45,12.5,11.45,12.5Zm.81-8.81a1.63,1.63,0,0,1-1.82,1.39c-.33,0-1.44,0-1.3-1.47A1.67,1.67,0,0,1,11,2.11,1.27,1.27,0,0,1,12.26,3.69Z"/></g></g></svg>