<?xml version="1.0" encoding="utf-8"?>
<!-- Generator: Adobe Illustrator 20.1.0, SVG Export Plug-In . SVG Version: 6.00 Build 0)  -->
<svg version="1.1" id="Layer_1" xmlns="http://www.w3.org/2000/svg" xmlns:xlink="http://www.w3.org/1999/xlink" x="0px" y="0px"
	 viewBox="0 0 26.2 34" style="enable-background:new 0 0 26.2 34;" xml:space="preserve">
<title>Asset 1</title>
<g id="Layer_2">
	<g id="Layer_1-2">
		<g id="gps">
			<g>
				<path d="M13.1,34c-0.1,0-0.2,0-0.3,0c-0.6-0.1-1.2-0.4-1.5-0.9C7.9,29,0,18.8,0,13.1C0,5.9,5.9,0,13.1,0h0
					c7.2,0,13.1,5.9,13.1,13.1c0,5.7-7.9,15.9-11.3,20c-0.1,0.1-0.3,0.3-0.4,0.4C14.1,33.8,13.6,34,13.1,34z M13.1,2C7,2,2,7,2,13.1
					c0,4.1,5.6,12.4,10.8,18.7C12.9,32,13,32,13.1,32c0,0,0.1,0,0.2-0.1c0,0,0.1-0.1,0.1-0.1c2.5-3.1,10.8-13.5,10.8-18.7
					C24.2,7,19.2,2,13.1,2L13.1,2z M13.1,18.7c-1.6,0-3-0.6-4.2-1.7c-1.1-1.1-1.7-2.6-1.7-4.2c0-1.6,0.6-3.1,1.7-4.2
					s2.6-1.7,4.2-1.7c1.6,0,3.1,0.6,4.2,1.7c1.1,1.1,1.7,2.6,1.7,4.2C19,16,16.4,18.7,13.1,18.7L13.1,18.7
					C13.1,18.7,13.1,18.7,13.1,18.7z M13.1,8.9C13.1,8.9,13.1,8.9,13.1,8.9c-1.1,0-2,0.4-2.8,1.2c-0.7,0.7-1.1,1.7-1.1,2.8
					c0,1,0.4,2,1.2,2.8c0.7,0.7,1.8,1.2,2.8,1.1l0,0c2.1,0,3.9-1.8,3.9-3.9c0-1.1-0.4-2-1.2-2.8C15.1,9.3,14.1,8.9,13.1,8.9z"/>
			</g>
		</g>
	</g>
</g>
</svg>
