<?xml version="1.0" encoding="utf-8"?>
<!-- Generator: Adobe Illustrator 21.0.0, SVG Export Plug-In . SVG Version: 6.00 Build 0)  -->
<svg version="1.1" id="Layer_1" xmlns="http://www.w3.org/2000/svg" xmlns:xlink="http://www.w3.org/1999/xlink" x="0px" y="0px"
	 viewBox="0 0 351.2 195.1" style="enable-background:new 0 0 351.2 195.1;" xml:space="preserve">
<style type="text/css">
	.st0{fill:#2C3E50;}
	.st1{fill:#95A5A6;}
	.st2{fill:#3498DB;}
	.st3{fill:url(#SVGID_1_);}
</style>
<g>
	<g>
		<path class="st0" d="M40.5,191.4c0,0.5-0.1,1-0.3,1.5c-0.2,0.5-0.5,0.8-0.8,1.2c-0.3,0.3-0.7,0.6-1.2,0.8
			c-0.5,0.2-0.9,0.3-1.4,0.3c-0.5,0-0.9-0.1-1.4-0.3c-0.5-0.2-0.9-0.4-1.2-0.8L7.3,166v28.5H0v-37.4c0-0.8,0.2-1.4,0.6-2
			c0.4-0.6,1-1.1,1.6-1.4c0.7-0.3,1.4-0.4,2.1-0.2c0.7,0.1,1.4,0.5,1.9,1l26.8,28V154h7.3V191.4z"/>
		<path class="st0" d="M85.6,194.6H59.1c-1,0-2.1-0.2-3.3-0.5c-1.2-0.4-2.3-0.9-3.3-1.8c-1-0.8-1.9-1.9-2.6-3.2s-1-2.9-1-4.8v-26.5
			c0-0.5,0.1-1,0.3-1.4c0.2-0.5,0.4-0.8,0.8-1.2c0.3-0.3,0.7-0.6,1.2-0.8c0.5-0.2,0.9-0.3,1.5-0.3h33.1v7.3H56.2v22.9
			c0,1,0.3,1.7,0.8,2.2c0.5,0.5,1.3,0.8,2.2,0.8h26.4V194.6z M82.3,178H59.1v-7.4h23.2V178z"/>
		<path class="st0" d="M111.2,168.5l12.4-14.5h10l-17.4,20.3l17.3,20.2h-10l-12.3-14.4L99,194.6H89l17.3-20.2L88.9,154h9.9
			L111.2,168.5z"/>
		<path class="st0" d="M174.9,161.4h-16.2v33.2h-7.3v-33.2h-16.2V154h39.7V161.4z"/>
		<path class="st0" d="M204,177.6h-26.5V171H204V177.6z"/>
		<path class="st0" d="M250.5,182.6c0,1.5-0.2,2.8-0.6,3.9s-0.9,2.2-1.5,3.1c-0.6,0.9-1.3,1.6-2.1,2.3s-1.6,1.1-2.5,1.5
			c-0.9,0.4-1.7,0.7-2.6,0.9c-0.9,0.2-1.7,0.3-2.5,0.3h-28.3v-7.3h28.3c1.4,0,2.5-0.4,3.3-1.2c0.8-0.8,1.2-1.9,1.2-3.3
			c0-0.7-0.1-1.3-0.3-1.9c-0.2-0.6-0.5-1.1-0.9-1.5s-0.9-0.7-1.4-1c-0.6-0.2-1.2-0.3-1.9-0.3h-16.9c-1.2,0-2.5-0.2-3.8-0.6
			c-1.4-0.4-2.7-1.1-3.8-2c-1.2-0.9-2.2-2.2-2.9-3.7c-0.8-1.5-1.2-3.4-1.2-5.6s0.4-4.1,1.2-5.6c0.8-1.5,1.8-2.7,2.9-3.7
			c1.2-1,2.5-1.6,3.8-2.1c1.4-0.4,2.7-0.6,3.8-0.6h25v7.3h-25c-1.4,0-2.5,0.4-3.3,1.3c-0.8,0.8-1.2,2-1.2,3.4c0,1.4,0.4,2.5,1.2,3.3
			c0.8,0.8,1.9,1.2,3.3,1.2h16.9h0.1c0.8,0,1.6,0.1,2.5,0.3c0.9,0.2,1.8,0.5,2.6,0.9c0.9,0.4,1.7,0.9,2.5,1.6s1.5,1.4,2.1,2.3
			c0.6,0.9,1.1,1.9,1.5,3.1C250.3,179.9,250.5,181.2,250.5,182.6z"/>
		<path class="st0" d="M264,194.6h-7.3V154h7.3V194.6z"/>
		<path class="st0" d="M309.2,161.4H293v33.2h-7.3v-33.2h-16.2V154h39.7V161.4z"/>
		<path class="st0" d="M351.2,194.6h-26.5c-1,0-2.1-0.2-3.3-0.5c-1.2-0.4-2.3-0.9-3.3-1.8c-1-0.8-1.9-1.9-2.6-3.2s-1-2.9-1-4.8
			v-26.5c0-0.5,0.1-1,0.3-1.4c0.2-0.5,0.4-0.8,0.8-1.2c0.3-0.3,0.7-0.6,1.2-0.8c0.5-0.2,0.9-0.3,1.5-0.3h33.1v7.3h-29.4v22.9
			c0,1,0.3,1.7,0.8,2.2c0.5,0.5,1.3,0.8,2.2,0.8h26.4V194.6z M347.9,178h-23.2v-7.4h23.2V178z"/>
	</g>
	<g>
		<path class="st1" d="M137.9,76.6l-25.5-15.8l-5.7-41.6c0-0.1,0-0.2,0-0.2l27.7,12.3L137.9,76.6z M211.4,76.7l26-16l5.7-41.6
			c0-0.1,0-0.1,0-0.2l-28.2,12.5L211.4,76.7z M174.5,15.8l26.2-9.1L175.4,0c-0.1,0-0.2,0-0.4,0c-0.1,0-0.2,0-0.4,0l-26.1,6.8
			L174.5,15.8z M204.6,7.8L178,17l35.9,12.4l27.2-12.1L204.6,7.8C204.6,7.7,204.6,7.8,204.6,7.8z M173.7,101.2l-33.1-20.4l2.8,35.3
			l30.3,22.7V101.2z M211.1,79.6l-2.7,35.1L232,97c0.3-0.2,0.5-0.6,0.6-1l4.4-32.4L211.1,79.6z M117.7,97l23.1,17.3l-2.7-35
			l-25.4-15.7l4.4,32.4C117.2,96.5,117.4,96.8,117.7,97z M208.7,81l-33,20.2V139l30.3-22.5L208.7,81z M135.8,29.3L171,17l-26.5-9.1
			l-35.8,9.4L135.8,29.3z"/>
		<path class="st2" d="M140.5,78.1l-3.6-45.8l36.8,16.3v50L140.5,78.1z M212.4,32.5l-36.7,16.3v49.7l33.2-20.3L212.4,32.5z
			 M175,46.7l35.8-15.9l-36.4-12.5l-35.7,12.4L175,46.7z"/>
		<linearGradient id="SVGID_1_" gradientUnits="userSpaceOnUse" x1="124.0082" y1="103.3419" x2="225.7393" y2="1.6108">
			<stop  offset="0" style="stop-color:#0A0A0A;stop-opacity:0.4"/>
			<stop  offset="0.3735" style="stop-color:#FFFFFF;stop-opacity:0"/>
			<stop  offset="1" style="stop-color:#FFFFFF;stop-opacity:0.5"/>
		</linearGradient>
		<path class="st3" d="M137.9,76.6l-25.5-15.8l-5.7-41.6c0-0.1,0-0.2,0-0.2l27.7,12.3L137.9,76.6z M211.4,76.7l26-16l5.7-41.6
			c0-0.1,0-0.1,0-0.2l-28.2,12.5L211.4,76.7z M174.5,15.8l26.2-9.1L175.4,0c-0.1,0-0.2,0-0.4,0c-0.1,0-0.2,0-0.4,0l-26.1,6.8
			L174.5,15.8z M204.6,7.8L178,17l35.9,12.4l27.2-12.1L204.6,7.8C204.6,7.7,204.6,7.8,204.6,7.8z M173.7,101.2l-33.1-20.4l2.8,35.3
			l30.3,22.7V101.2z M211.1,79.6l-2.7,35.1L232,97c0.3-0.2,0.5-0.6,0.6-1l4.4-32.4L211.1,79.6z M117.7,97l23.1,17.3l-2.7-35
			l-25.4-15.7l4.4,32.4C117.2,96.5,117.4,96.8,117.7,97z M208.7,81l-33,20.2V139l30.3-22.5L208.7,81z M135.8,29.3L171,17l-26.5-9.1
			l-35.8,9.4L135.8,29.3z"/>
	</g>
</g>
</svg>
