<?xml version="1.0" encoding="utf-8"?>
<!-- Generator: Adobe Illustrator 20.1.0, SVG Export Plug-In . SVG Version: 6.00 Build 0)  -->
<svg version="1.1" id="Layer_1" xmlns="http://www.w3.org/2000/svg" xmlns:xlink="http://www.w3.org/1999/xlink" x="0px" y="0px"
	 viewBox="0 0 503.2 139" style="enable-background:new 0 0 503.2 139;" xml:space="preserve">
<style type="text/css">
	.st0{fill:#2C3E50;}
	.st1{fill:#95A5A6;}
	.st2{fill:#3498DB;}
	.st3{fill:url(#SVGID_1_);}
</style>
<g>
	<g>
		<path class="st0" d="M192.5,83.4c0,0.5-0.1,1-0.3,1.5c-0.2,0.5-0.5,0.8-0.8,1.2c-0.3,0.3-0.7,0.6-1.2,0.8
			c-0.5,0.2-0.9,0.3-1.4,0.3c-0.5,0-0.9-0.1-1.4-0.3c-0.5-0.2-0.9-0.4-1.2-0.8l-26.8-28v28.5H152V49.2c0-0.8,0.2-1.4,0.6-2
			c0.4-0.6,1-1.1,1.6-1.4c0.7-0.3,1.4-0.4,2.1-0.2c0.7,0.1,1.4,0.5,1.9,1l26.8,28V46h7.3V83.4z"/>
		<path class="st0" d="M237.6,86.6h-26.5c-1,0-2.1-0.2-3.3-0.5c-1.2-0.4-2.3-0.9-3.3-1.8c-1-0.8-1.9-1.9-2.6-3.2
			c-0.7-1.3-1-2.9-1-4.8V49.7c0-0.5,0.1-1,0.3-1.4c0.2-0.5,0.4-0.8,0.8-1.2c0.3-0.3,0.7-0.6,1.2-0.8c0.5-0.2,0.9-0.3,1.5-0.3h33.1
			v7.3h-29.4v22.9c0,1,0.3,1.7,0.8,2.2c0.5,0.5,1.3,0.8,2.2,0.8h26.4V86.6z M234.3,70h-23.2v-7.4h23.2V70z"/>
		<path class="st0" d="M263.2,60.5L275.6,46h10l-17.4,20.3l17.3,20.2h-10l-12.3-14.4l-12.3,14.4h-10l17.3-20.2L240.9,46h9.9
			L263.2,60.5z"/>
		<path class="st0" d="M326.9,53.4h-16.2v33.2h-7.3V53.4h-16.2V46h39.7V53.4z"/>
		<path class="st0" d="M356,69.6h-26.5V63H356V69.6z"/>
		<path class="st0" d="M402.5,74.6c0,1.5-0.2,2.8-0.6,3.9s-0.9,2.2-1.5,3.1c-0.6,0.9-1.3,1.6-2.1,2.3s-1.6,1.1-2.5,1.5
			c-0.9,0.4-1.7,0.7-2.6,0.9c-0.9,0.2-1.7,0.3-2.5,0.3h-28.3v-7.3h28.3c1.4,0,2.5-0.4,3.3-1.2c0.8-0.8,1.2-1.9,1.2-3.3
			c0-0.7-0.1-1.3-0.3-1.9s-0.5-1.1-0.9-1.5c-0.4-0.4-0.9-0.7-1.4-1c-0.6-0.2-1.2-0.3-1.9-0.3h-16.9c-1.2,0-2.5-0.2-3.8-0.6
			c-1.4-0.4-2.7-1.1-3.8-2c-1.2-0.9-2.2-2.2-2.9-3.7c-0.8-1.5-1.2-3.4-1.2-5.6c0-2.2,0.4-4.1,1.2-5.6c0.8-1.5,1.8-2.7,2.9-3.7
			c1.2-1,2.5-1.6,3.8-2.1c1.4-0.4,2.7-0.6,3.8-0.6h25v7.3h-25c-1.4,0-2.5,0.4-3.3,1.3c-0.8,0.8-1.2,2-1.2,3.4c0,1.4,0.4,2.5,1.2,3.3
			c0.8,0.8,1.9,1.2,3.3,1.2h16.9h0.1c0.8,0,1.6,0.1,2.5,0.3c0.9,0.2,1.8,0.5,2.6,0.9c0.9,0.4,1.7,0.9,2.5,1.6
			c0.8,0.6,1.5,1.4,2.1,2.3c0.6,0.9,1.1,1.9,1.5,3.1C402.3,71.9,402.5,73.2,402.5,74.6z"/>
		<path class="st0" d="M416,86.6h-7.3V46h7.3V86.6z"/>
		<path class="st0" d="M461.2,53.4H445v33.2h-7.3V53.4h-16.2V46h39.7V53.4z"/>
		<path class="st0" d="M503.2,86.6h-26.5c-1,0-2.1-0.2-3.3-0.5c-1.2-0.4-2.3-0.9-3.3-1.8c-1-0.8-1.9-1.9-2.6-3.2
			c-0.7-1.3-1-2.9-1-4.8V49.7c0-0.5,0.1-1,0.3-1.4c0.2-0.5,0.4-0.8,0.8-1.2c0.3-0.3,0.7-0.6,1.2-0.8c0.5-0.2,0.9-0.3,1.5-0.3h33.1
			v7.3h-29.4v22.9c0,1,0.3,1.7,0.8,2.2c0.5,0.5,1.3,0.8,2.2,0.8h26.4V86.6z M499.9,70h-23.2v-7.4h23.2V70z"/>
	</g>
	<path class="st1" d="M31.2,76.6L5.7,60.8L0,19.2c0-0.1,0-0.2,0-0.2l27.7,12.3L31.2,76.6z M104.7,76.7l26-16l5.7-41.6
		c0-0.1,0-0.1,0-0.2l-28.2,12.5L104.7,76.7z M67.8,15.8L94,6.7L68.7,0c-0.1,0-0.2,0-0.4,0c-0.1,0-0.2,0-0.4,0L41.8,6.9L67.8,15.8z
		 M97.9,7.8L71.3,17l35.9,12.4l27.2-12.1L97.9,7.8C98,7.7,97.9,7.8,97.9,7.8z M67,101.2L33.9,80.9l2.8,35.3L67,139V101.2z
		 M104.5,79.6l-2.7,35.1L125.3,97c0.3-0.2,0.5-0.6,0.6-1l4.4-32.4L104.5,79.6z M11.1,97l23.1,17.3l-2.7-35L6.1,63.7l4.4,32.4
		C10.5,96.5,10.7,96.8,11.1,97z M102,81l-33,20.2V139l30.3-22.5L102,81z M29.1,29.3L64.3,17L37.9,7.9L2,17.3L29.1,29.3z"/>
	<path class="st2" d="M33.8,78.1l-3.6-45.8L67,48.5v50L33.8,78.1z M105.7,32.5L69,48.8v49.7l33.2-20.3L105.7,32.5z M68.3,46.7
		l35.8-15.9L67.8,18.2L32.2,30.7L68.3,46.7z"/>
	<linearGradient id="SVGID_1_" gradientUnits="userSpaceOnUse" x1="17.3286" y1="103.3419" x2="119.0597" y2="1.6108">
		<stop  offset="0" style="stop-color:#0A0A0A;stop-opacity:0.4"/>
		<stop  offset="0.3735" style="stop-color:#FFFFFF;stop-opacity:0"/>
		<stop  offset="1" style="stop-color:#FFFFFF;stop-opacity:0.5"/>
	</linearGradient>
	<path class="st3" d="M31.2,76.6L5.7,60.8L0,19.2c0-0.1,0-0.2,0-0.2l27.7,12.3L31.2,76.6z M104.7,76.7l26-16l5.7-41.6
		c0-0.1,0-0.1,0-0.2l-28.2,12.5L104.7,76.7z M67.8,15.8L94,6.7L68.7,0c-0.1,0-0.2,0-0.4,0c-0.1,0-0.2,0-0.4,0L41.8,6.9L67.8,15.8z
		 M97.9,7.8L71.3,17l35.9,12.4l27.2-12.1L97.9,7.8C98,7.7,97.9,7.8,97.9,7.8z M67,101.2L33.9,80.9l2.8,35.3L67,139V101.2z
		 M104.5,79.6l-2.7,35.1L125.3,97c0.3-0.2,0.5-0.6,0.6-1l4.4-32.4L104.5,79.6z M11.1,97l23.1,17.3l-2.7-35L6.1,63.7l4.4,32.4
		C10.5,96.5,10.7,96.8,11.1,97z M102,81l-33,20.2V139l30.3-22.5L102,81z M29.1,29.3L64.3,17L37.9,7.9L2,17.3L29.1,29.3z"/>
</g>
</svg>