<?xml version="1.0" encoding="utf-8"?>
<!-- Generator: Adobe Illustrator 20.1.0, SVG Export Plug-In . SVG Version: 6.00 Build 0)  -->
<svg version="1.1" id="Layer_1" xmlns="http://www.w3.org/2000/svg" xmlns:xlink="http://www.w3.org/1999/xlink" x="0px" y="0px"
	 viewBox="0 0 136.4 139" style="enable-background:new 0 0 136.4 139;" xml:space="preserve">
<style type="text/css">
	.st0{fill:#95A5A6;}
	.st1{fill:#3498DB;}
	.st2{fill:url(#SVGID_1_);}
</style>
<path class="st0" d="M31.2,76.6L5.7,60.8L0,19.2c0-0.1,0-0.2,0-0.2l27.7,12.3L31.2,76.6z M104.7,76.7l26-16l5.7-41.6
	c0-0.1,0-0.1,0-0.2l-28.2,12.5L104.7,76.7z M67.8,15.8L94,6.7L68.7,0c-0.1,0-0.2,0-0.4,0c-0.1,0-0.2,0-0.4,0L41.8,6.9L67.8,15.8z
	 M97.9,7.8L71.3,17l35.9,12.4l27.2-12.1L97.9,7.8C98,7.7,97.9,7.8,97.9,7.8z M67,101.2L33.9,80.9l2.8,35.3L67,139V101.2z
	 M104.5,79.6l-2.7,35.1L125.3,97c0.3-0.2,0.5-0.6,0.6-1l4.4-32.4L104.5,79.6z M11.1,97l23.1,17.3l-2.7-35L6.1,63.7l4.4,32.4
	C10.5,96.5,10.7,96.8,11.1,97z M102,81l-33,20.2V139l30.3-22.5L102,81z M29.1,29.3L64.3,17L37.9,7.9L2,17.3L29.1,29.3z"/>
<path class="st1" d="M33.8,78.1l-3.6-45.8L67,48.5v50L33.8,78.1z M105.7,32.5L69,48.8v49.7l33.2-20.3L105.7,32.5z M68.3,46.7
	l35.8-15.9L67.8,18.2L32.2,30.7L68.3,46.7z"/>
<linearGradient id="SVGID_1_" gradientUnits="userSpaceOnUse" x1="17.3286" y1="103.3419" x2="119.0597" y2="1.6108">
	<stop  offset="0" style="stop-color:#0A0A0A;stop-opacity:0.4"/>
	<stop  offset="0.3735" style="stop-color:#FFFFFF;stop-opacity:0"/>
	<stop  offset="1" style="stop-color:#FFFFFF;stop-opacity:0.5"/>
</linearGradient>
<path class="st2" d="M31.2,76.6L5.7,60.8L0,19.2c0-0.1,0-0.2,0-0.2l27.7,12.3L31.2,76.6z M104.7,76.7l26-16l5.7-41.6
	c0-0.1,0-0.1,0-0.2l-28.2,12.5L104.7,76.7z M67.8,15.8L94,6.7L68.7,0c-0.1,0-0.2,0-0.4,0c-0.1,0-0.2,0-0.4,0L41.8,6.9L67.8,15.8z
	 M97.9,7.8L71.3,17l35.9,12.4l27.2-12.1L97.9,7.8C98,7.7,97.9,7.8,97.9,7.8z M67,101.2L33.9,80.9l2.8,35.3L67,139V101.2z
	 M104.5,79.6l-2.7,35.1L125.3,97c0.3-0.2,0.5-0.6,0.6-1l4.4-32.4L104.5,79.6z M11.1,97l23.1,17.3l-2.7-35L6.1,63.7l4.4,32.4
	C10.5,96.5,10.7,96.8,11.1,97z M102,81l-33,20.2V139l30.3-22.5L102,81z M29.1,29.3L64.3,17L37.9,7.9L2,17.3L29.1,29.3z"/>
</svg>
