<?xml version="1.0" encoding="utf-8"?>
<!-- Generator: Adobe Illustrator 20.1.0, SVG Export Plug-In . SVG Version: 6.00 Build 0)  -->
<svg version="1.1" id="Layer_1" xmlns="http://www.w3.org/2000/svg" xmlns:xlink="http://www.w3.org/1999/xlink" x="0px" y="0px"
	 viewBox="0 0 243.8 137.9" style="enable-background:new 0 0 243.8 137.9;" xml:space="preserve">
<style type="text/css">
	.st0{fill:#FFFFFF;}
</style>
<g>
	<g>
		<path class="st0" d="M28.1,135.4c0,0.4-0.1,0.7-0.2,1s-0.3,0.6-0.5,0.8c-0.2,0.2-0.5,0.4-0.8,0.5c-0.3,0.1-0.6,0.2-1,0.2
			c-0.3,0-0.6-0.1-1-0.2c-0.3-0.1-0.6-0.3-0.9-0.6L5.1,117.7v19.8H0v-25.9c0-0.5,0.1-1,0.4-1.4c0.3-0.4,0.7-0.7,1.1-1
			c0.5-0.2,1-0.2,1.5-0.1c0.5,0.1,0.9,0.3,1.3,0.7L23,129.2v-19.8h5.1V135.4z"/>
		<path class="st0" d="M59.4,137.5H41c-0.7,0-1.5-0.1-2.3-0.4s-1.6-0.7-2.3-1.2c-0.7-0.6-1.3-1.3-1.8-2.2c-0.5-0.9-0.7-2-0.7-3.3
			V112c0-0.4,0.1-0.7,0.2-1c0.1-0.3,0.3-0.6,0.5-0.8c0.2-0.2,0.5-0.4,0.8-0.5c0.3-0.1,0.7-0.2,1-0.2h23v5.1H39v15.9
			c0,0.7,0.2,1.2,0.5,1.5s0.9,0.5,1.5,0.5h18.4V137.5z M57.2,126.1H41v-5.1h16.1V126.1z"/>
		<path class="st0" d="M77.2,119.5l8.6-10h7l-12.1,14.1l12,14h-6.9l-8.6-10l-8.5,10h-6.9l12-14l-12-14.1h6.9L77.2,119.5z"/>
		<path class="st0" d="M121.4,114.5h-11.2v23h-5.1v-23H93.8v-5.1h27.6V114.5z"/>
		<path class="st0" d="M141.6,125.8h-18.4v-4.6h18.4V125.8z"/>
		<path class="st0" d="M173.9,129.3c0,1-0.1,1.9-0.4,2.7c-0.3,0.8-0.6,1.5-1,2.1c-0.4,0.6-0.9,1.1-1.5,1.6c-0.6,0.4-1.1,0.8-1.7,1.1
			s-1.2,0.5-1.8,0.6c-0.6,0.1-1.2,0.2-1.8,0.2H146v-5.1h19.7c1,0,1.7-0.3,2.3-0.9c0.5-0.6,0.8-1.3,0.8-2.3c0-0.5-0.1-0.9-0.2-1.3
			c-0.1-0.4-0.3-0.7-0.6-1s-0.6-0.5-1-0.7c-0.4-0.2-0.8-0.2-1.3-0.2H154c-0.8,0-1.7-0.1-2.7-0.4c-1-0.3-1.8-0.8-2.7-1.4
			c-0.8-0.7-1.5-1.5-2-2.6c-0.5-1.1-0.8-2.4-0.8-3.9s0.3-2.8,0.8-3.9c0.5-1.1,1.2-1.9,2-2.6c0.8-0.7,1.7-1.1,2.7-1.4
			c1-0.3,1.8-0.4,2.7-0.4h17.4v5.1H154c-1,0-1.7,0.3-2.3,0.9c-0.5,0.6-0.8,1.4-0.8,2.3c0,1,0.3,1.8,0.8,2.3c0.5,0.6,1.3,0.9,2.3,0.9
			h11.7h0c0.5,0,1.1,0.1,1.7,0.2c0.6,0.1,1.2,0.4,1.8,0.6c0.6,0.3,1.2,0.7,1.7,1.1c0.5,0.4,1,1,1.5,1.6c0.4,0.6,0.8,1.3,1,2.1
			C173.8,127.4,173.9,128.3,173.9,129.3z"/>
		<path class="st0" d="M183.3,137.5h-5.1v-28.1h5.1V137.5z"/>
		<path class="st0" d="M214.7,114.5h-11.2v23h-5.1v-23h-11.3v-5.1h27.6V114.5z"/>
		<path class="st0" d="M243.8,137.5h-18.4c-0.7,0-1.5-0.1-2.3-0.4s-1.6-0.7-2.3-1.2c-0.7-0.6-1.3-1.3-1.8-2.2
			c-0.5-0.9-0.7-2-0.7-3.3V112c0-0.4,0.1-0.7,0.2-1c0.1-0.3,0.3-0.6,0.5-0.8s0.5-0.4,0.8-0.5c0.3-0.1,0.7-0.2,1-0.2h23v5.1h-20.4
			v15.9c0,0.7,0.2,1.2,0.5,1.5c0.4,0.4,0.9,0.5,1.5,0.5h18.4V137.5z M241.5,126.1h-16.1v-5.1h16.1V126.1z"/>
	</g>
	<g>
		<path class="st0" d="M123.4,68.7l20.2-12.5L142,78l-18.6,13.9V68.7z M100.8,77.8L99,56.1l20.4,12.6v23.2L100.8,77.8z M147.1,53.9
			l15.4-9.5l-2.7,20l-14.3,10.7L147.1,53.9z M83,64.5l-2.7-20l15.1,9.3L97,75L83,64.5z M149.7,21.2l17.1-7.6l-3.6,26.4l-15.7,9.6
			L149.7,21.2z M79.6,39.9L76,13.6L92.8,21L95,49.4L79.6,39.9z M126.6,10.6l15.2-5.3l21.8,5.7L148,18L126.6,10.6z M79.2,11.1
			l21.4-5.6l15.1,5.2l-21,7.3L79.2,11.1z M106.9,3.8L121.5,0l14.1,3.7l-14.5,5L106.9,3.8z"/>
		<polygon class="st0" points="98.8,51.7 96.5,22.6 119.4,32.8 119.4,64.5 		"/>
		<polygon class="st0" points="123.4,33 146.2,22.8 144,51.8 123.4,64.5 		"/>
		<polygon class="st0" points="99.5,20.1 121.2,12.5 143.3,20.1 121.5,29.8 		"/>
		<polygon class="st0" points="79.6,39.9 76,13.6 92.8,21 95,49.4 		"/>
		<polygon class="st0" points="149.7,21.2 166.8,13.6 163.2,39.9 147.5,49.5 		"/>
		<polygon class="st0" points="106.9,3.8 121.5,0 135.6,3.7 121.2,8.8 		"/>
		<polygon class="st0" points="126.6,10.6 141.8,5.3 163.6,11.1 148,18 		"/>
		<polygon class="st0" points="100.8,77.8 99,56.1 119.4,68.7 119.4,91.9 		"/>
		<polygon class="st0" points="147.1,53.9 162.6,44.5 159.8,64.5 145.5,75.2 		"/>
		<polygon class="st0" points="83,64.5 80.3,44.5 95.4,53.8 97,75 		"/>
		<polygon class="st0" points="123.4,68.7 143.6,56.2 142,78 123.4,91.9 		"/>
		<polygon class="st0" points="79.2,11.1 100.6,5.5 115.7,10.6 94.8,17.9 		"/>
	</g>
</g>
</svg>
