<?xml version="1.0" encoding="utf-8"?>
<!-- Generator: Adobe Illustrator 21.0.0, SVG Export Plug-In . SVG Version: 6.00 Build 0)  -->
<svg version="1.1" id="Layer_1" xmlns="http://www.w3.org/2000/svg" xmlns:xlink="http://www.w3.org/1999/xlink" x="0px" y="0px"
	 viewBox="0 0 190 360" style="enable-background:new 0 0 190 360;" xml:space="preserve">
<style type="text/css">
	.st0{fill:url(#SVGID_1_);}
	.st1{fill:url(#SVGID_2_);}
	.st2{fill:url(#SVGID_3_);}
	.st3{fill:url(#SVGID_4_);}
	.st4{fill:url(#SVGID_5_);}
	.st5{fill:#E3E3E3;}
	.st6{fill:url(#SVGID_6_);}
	.st7{fill:#666664;}
	.st8{fill:#3C3C3B;}
	.st9{fill:url(#SVGID_7_);}
	.st10{fill:url(#SVGID_8_);}
	.st11{fill:url(#SVGID_9_);}
	.st12{fill:#1D1D1B;}
	.st13{fill:url(#SVGID_10_);}
	.st14{fill:url(#SVGID_11_);}
	.st15{fill:#2E2E2D;}
</style>
<g>
	<g>
		<linearGradient id="SVGID_1_" gradientUnits="userSpaceOnUse" x1="2.7591" y1="13.1424" x2="186.674" y2="13.1424">
			<stop  offset="0" style="stop-color:#000000"/>
			<stop  offset="0.3475" style="stop-color:#090909"/>
			<stop  offset="0.9174" style="stop-color:#222222"/>
			<stop  offset="1" style="stop-color:#262626"/>
		</linearGradient>
		<polygon class="st0" points="100.8,22.6 102.7,3.6 102.7,3.6 100.8,22.6 		"/>
		<linearGradient id="SVGID_2_" gradientUnits="userSpaceOnUse" x1="2.8331" y1="13.1424" x2="186.7596" y2="13.1424">
			<stop  offset="0" style="stop-color:#000000"/>
			<stop  offset="0.3475" style="stop-color:#090909"/>
			<stop  offset="0.9174" style="stop-color:#222222"/>
			<stop  offset="1" style="stop-color:#262626"/>
		</linearGradient>
		<polygon class="st1" points="100.8,22.6 102.7,3.6 102.7,3.6 100.8,22.6 		"/>
		<g>
			<linearGradient id="SVGID_3_" gradientUnits="userSpaceOnUse" x1="189.5187" y1="51.9559" x2="189.5187" y2="82.4652">
				<stop  offset="0" style="stop-color:#FFFFFF"/>
				<stop  offset="1.085040e-02" style="stop-color:#E0E0E0"/>
				<stop  offset="2.832184e-02" style="stop-color:#B5B5B4"/>
				<stop  offset="4.713538e-02" style="stop-color:#8E8E8D"/>
				<stop  offset="6.703036e-02" style="stop-color:#6E6E6D"/>
				<stop  offset="8.834353e-02" style="stop-color:#545452"/>
				<stop  offset="0.1116" style="stop-color:#3F3F3E"/>
				<stop  offset="0.1378" style="stop-color:#31312F"/>
				<stop  offset="0.1693" style="stop-color:#292927"/>
				<stop  offset="0.2206" style="stop-color:#262624"/>
				<stop  offset="0.224" style="stop-color:#31312F"/>
				<stop  offset="0.2379" style="stop-color:#5A5A58"/>
				<stop  offset="0.2531" style="stop-color:#7E7E7D"/>
				<stop  offset="0.2693" style="stop-color:#9D9D9C"/>
				<stop  offset="0.287" style="stop-color:#B5B5B5"/>
				<stop  offset="0.3067" style="stop-color:#C8C8C8"/>
				<stop  offset="0.3295" style="stop-color:#D6D6D6"/>
				<stop  offset="0.3582" style="stop-color:#DEDEDE"/>
				<stop  offset="0.4118" style="stop-color:#E0E0E0"/>
				<stop  offset="0.7745" style="stop-color:#4F4F4F"/>
				<stop  offset="0.9461" style="stop-color:#262626"/>
				<stop  offset="0.9513" style="stop-color:#303030"/>
				<stop  offset="0.9601" style="stop-color:#4B4B4B"/>
				<stop  offset="0.9714" style="stop-color:#767676"/>
				<stop  offset="0.9849" style="stop-color:#B3B3B3"/>
				<stop  offset="1" style="stop-color:#FFFFFF"/>
			</linearGradient>
			<path class="st2" d="M189.9,81.5c0,0.6-0.2,1-0.4,1c-0.2,0-0.4-0.5-0.4-1V53c0-0.6,0.2-1,0.4-1c0.2,0,0.4,0.5,0.4,1V81.5z"/>
			
				<linearGradient id="SVGID_4_" gradientUnits="userSpaceOnUse" x1="748.7313" y1="147.1327" x2="761.6757" y2="147.1327" gradientTransform="matrix(1.600000e-03 1 -1 1.600000e-03 335.5078 -648.9)">
				<stop  offset="0" style="stop-color:#FFFFFF"/>
				<stop  offset="1.085040e-02" style="stop-color:#E0E0E0"/>
				<stop  offset="2.832184e-02" style="stop-color:#B5B5B4"/>
				<stop  offset="4.713538e-02" style="stop-color:#8E8E8D"/>
				<stop  offset="6.703036e-02" style="stop-color:#6E6E6D"/>
				<stop  offset="8.834353e-02" style="stop-color:#545452"/>
				<stop  offset="0.1116" style="stop-color:#3F3F3E"/>
				<stop  offset="0.1378" style="stop-color:#31312F"/>
				<stop  offset="0.1693" style="stop-color:#292927"/>
				<stop  offset="0.2206" style="stop-color:#262624"/>
				<stop  offset="0.224" style="stop-color:#31312F"/>
				<stop  offset="0.2379" style="stop-color:#5A5A58"/>
				<stop  offset="0.2531" style="stop-color:#7E7E7D"/>
				<stop  offset="0.2693" style="stop-color:#9D9D9C"/>
				<stop  offset="0.287" style="stop-color:#B5B5B5"/>
				<stop  offset="0.3067" style="stop-color:#C8C8C8"/>
				<stop  offset="0.3295" style="stop-color:#D6D6D6"/>
				<stop  offset="0.3582" style="stop-color:#DEDEDE"/>
				<stop  offset="0.4118" style="stop-color:#E0E0E0"/>
				<stop  offset="0.7745" style="stop-color:#4F4F4F"/>
				<stop  offset="0.9461" style="stop-color:#262626"/>
				<stop  offset="0.9513" style="stop-color:#303030"/>
				<stop  offset="0.9601" style="stop-color:#4B4B4B"/>
				<stop  offset="0.9714" style="stop-color:#767676"/>
				<stop  offset="0.9849" style="stop-color:#B3B3B3"/>
				<stop  offset="1" style="stop-color:#FFFFFF"/>
			</linearGradient>
			<path class="st3" d="M189.6,113c0.2,0,0.4-0.4,0.4-0.9l0-11.1c0-0.5-0.2-0.9-0.4-0.9c-0.2,0-0.4,0.4-0.4,0.9l0,11.1
				C189.2,112.6,189.4,113,189.6,113z"/>
			<g>
				<linearGradient id="SVGID_5_" gradientUnits="userSpaceOnUse" x1="94.7594" y1="360" x2="94.7594" y2="-9.094947e-13">
					<stop  offset="0" style="stop-color:#DBDBDB"/>
					<stop  offset="2.000000e-02" style="stop-color:#16171A"/>
					<stop  offset="3.085395e-02" style="stop-color:#292A2C"/>
					<stop  offset="5.529978e-02" style="stop-color:#4D4E50"/>
					<stop  offset="8.282197e-02" style="stop-color:#6D6E6F"/>
					<stop  offset="0.1132" style="stop-color:#89898A"/>
					<stop  offset="0.1476" style="stop-color:#9F9F9F"/>
					<stop  offset="0.1877" style="stop-color:#B0B0B0"/>
					<stop  offset="0.2373" style="stop-color:#BBBBBC"/>
					<stop  offset="0.3069" style="stop-color:#C2C2C2"/>
					<stop  offset="0.5" style="stop-color:#C4C4C4"/>
					<stop  offset="0.6931" style="stop-color:#C2C2C2"/>
					<stop  offset="0.7627" style="stop-color:#BBBBBC"/>
					<stop  offset="0.8123" style="stop-color:#B0B0B0"/>
					<stop  offset="0.8524" style="stop-color:#9F9F9F"/>
					<stop  offset="0.8868" style="stop-color:#89898A"/>
					<stop  offset="0.9172" style="stop-color:#6D6E6F"/>
					<stop  offset="0.9447" style="stop-color:#4D4E50"/>
					<stop  offset="0.9691" style="stop-color:#292A2C"/>
					<stop  offset="0.98" style="stop-color:#16171A"/>
					<stop  offset="1" style="stop-color:#DBDBDB"/>
				</linearGradient>
				<path class="st4" d="M189.5,336.9c0,12-10.5,23.1-22.4,23.1H22.4C11,360,0,348.9,0,336.9V22.7C0,10.7,11.4,0,22.9,0h144.3
					c11.9,0,22.4,11.1,22.4,23.1V336.9z"/>
				<path class="st5" d="M22.4,359.1c-9.7,0-21.7-9.8-21.7-22.7V23.6c0-12.2,10.9-22.7,21.7-22.7h144.7c8.9,0,21.7,8.4,21.7,22.7
					v312.8c0,11.8-10.9,22.7-21.7,22.7H22.4z"/>
				<path d="M22.4,358.2c-8,0-21-8.9-21-21.8V23.6c0.3-12.8,11.8-21.8,21-21.8h144.7c7.7,0,21,7.6,21,21.8v312.8
					c0,11.1-10.8,21.8-21,21.8H22.4z"/>
				<linearGradient id="SVGID_6_" gradientUnits="userSpaceOnUse" x1="3.0002" y1="180.0035" x2="187.0014" y2="180.0035">
					<stop  offset="0" style="stop-color:#000000"/>
					<stop  offset="0.3475" style="stop-color:#090909"/>
					<stop  offset="0.9174" style="stop-color:#222222"/>
					<stop  offset="1" style="stop-color:#262626"/>
				</linearGradient>
				<path class="st6" d="M22.2,356.9C15.4,356.7,3,348.2,3,336.4V23.1c0-11.1,10.9-20,19.2-20h145.2c8.4,0,19.6,8.9,19.6,20.5v312.8
					c0.2,10.8-11,20.5-19.6,20.5H22.2z"/>
			</g>
		</g>
		<g>
			<path class="st7" d="M115.7,19.7c0,1.5-1.3,2.7-2.8,2.7H77.2c-1.5,0-2.8-1.2-2.8-2.7c0-1.5,1.3-2.7,2.8-2.7h35.7
				C114.4,17,115.7,18.2,115.7,19.7z"/>
		</g>
		<g>
			<ellipse class="st8" cx="130.8" cy="19.7" rx="4.2" ry="4.2"/>
			<linearGradient id="SVGID_7_" gradientUnits="userSpaceOnUse" x1="130.766" y1="22.7005" x2="130.766" y2="16.6652">
				<stop  offset="0" style="stop-color:#0F0F0F"/>
				<stop  offset="0.1047" style="stop-color:#090909"/>
				<stop  offset="0.3416" style="stop-color:#020202"/>
				<stop  offset="1" style="stop-color:#000000"/>
			</linearGradient>
			<ellipse class="st9" cx="130.8" cy="19.7" rx="3" ry="3"/>
			<linearGradient id="SVGID_8_" gradientUnits="userSpaceOnUse" x1="128.36" y1="22.0965" x2="133.1717" y2="22.0965">
				<stop  offset="0" style="stop-color:#000000"/>
				<stop  offset="0.1714" style="stop-color:#020202"/>
				<stop  offset="0.244" style="stop-color:#090909"/>
				<stop  offset="0.2979" style="stop-color:#161616"/>
				<stop  offset="0.3426" style="stop-color:#272727"/>
				<stop  offset="0.3816" style="stop-color:#3E3E3E"/>
				<stop  offset="0.4165" style="stop-color:#5B5B5B"/>
				<stop  offset="0.4478" style="stop-color:#7C7C7C"/>
				<stop  offset="0.4706" style="stop-color:#999999"/>
				<stop  offset="0.5294" style="stop-color:#999999"/>
				<stop  offset="0.5519" style="stop-color:#7D7D7D"/>
				<stop  offset="0.5838" style="stop-color:#5B5B5B"/>
				<stop  offset="0.6195" style="stop-color:#3F3F3F"/>
				<stop  offset="0.6592" style="stop-color:#282828"/>
				<stop  offset="0.7045" style="stop-color:#161616"/>
				<stop  offset="0.759" style="stop-color:#090909"/>
				<stop  offset="0.8319" style="stop-color:#020202"/>
				<stop  offset="1" style="stop-color:#000000"/>
			</linearGradient>
			<path class="st10" d="M130.8,21.8c-0.9,0-1.7-0.1-2.4-0.3c0.5,0.7,1.4,1.2,2.4,1.2c1,0,1.9-0.5,2.4-1.2
				C132.4,21.7,131.6,21.8,130.8,21.8z"/>
			<linearGradient id="SVGID_9_" gradientUnits="userSpaceOnUse" x1="130.766" y1="21.8626" x2="130.766" y2="17.5034">
				<stop  offset="0" style="stop-color:#FFFFFF"/>
				<stop  offset="4.563826e-02" style="stop-color:#D6D6D6"/>
				<stop  offset="9.539109e-02" style="stop-color:#B2B2B2"/>
				<stop  offset="0.1513" style="stop-color:#929292"/>
				<stop  offset="0.2132" style="stop-color:#767676"/>
				<stop  offset="0.2831" style="stop-color:#606060"/>
				<stop  offset="0.3647" style="stop-color:#4F4F4F"/>
				<stop  offset="0.4656" style="stop-color:#444444"/>
				<stop  offset="0.6071" style="stop-color:#3D3D3D"/>
				<stop  offset="1" style="stop-color:#3B3B3B"/>
			</linearGradient>
			<ellipse class="st11" cx="130.8" cy="19.7" rx="2.2" ry="2.2"/>
			<ellipse class="st12" cx="130.8" cy="19.7" rx="1.6" ry="1.6"/>
			<linearGradient id="SVGID_10_" gradientUnits="userSpaceOnUse" x1="130.1792" y1="19.6829" x2="131.3525" y2="19.6829">
				<stop  offset="0" style="stop-color:#1C1C1C"/>
				<stop  offset="1" style="stop-color:#1C1C1C"/>
			</linearGradient>
			<circle class="st13" cx="130.8" cy="19.7" r="0.6"/>
			<linearGradient id="SVGID_11_" gradientUnits="userSpaceOnUse" x1="130.4052" y1="18.3492" x2="131.0474" y2="19.4615">
				<stop  offset="0" style="stop-color:#CED4F2"/>
				<stop  offset="7.053881e-02" style="stop-color:#CCDAEE"/>
				<stop  offset="0.1635" style="stop-color:#C5EAE4"/>
				<stop  offset="0.1961" style="stop-color:#C2F2DF"/>
				<stop  offset="0.2711" style="stop-color:#D1EBE6"/>
				<stop  offset="0.4154" style="stop-color:#F9D8F8"/>
				<stop  offset="0.4265" style="stop-color:#FCD6F9"/>
				<stop  offset="0.4891" style="stop-color:#FCD9F9"/>
				<stop  offset="0.5372" style="stop-color:#FDE3FB"/>
				<stop  offset="0.5804" style="stop-color:#FEF3FD"/>
				<stop  offset="0.6029" style="stop-color:#FFFFFF"/>
				<stop  offset="0.6397" style="stop-color:#F7F7FF"/>
				<stop  offset="0.6976" style="stop-color:#E0E2FE"/>
				<stop  offset="0.769" style="stop-color:#BCC0FC"/>
				<stop  offset="0.7843" style="stop-color:#B3B8FC"/>
				<stop  offset="0.8489" style="stop-color:#B6BBFC"/>
				<stop  offset="0.8938" style="stop-color:#BFC3FC"/>
				<stop  offset="0.9327" style="stop-color:#CED2FD"/>
				<stop  offset="0.968" style="stop-color:#E4E6FE"/>
				<stop  offset="1" style="stop-color:#FFFFFF"/>
			</linearGradient>
			<path class="st14" d="M130.8,18.8c0.4,0,0.8,0.1,1.1,0.2c-0.2-0.4-0.6-0.7-1.1-0.7c-0.5,0-0.9,0.3-1.1,0.7
				C130,18.8,130.4,18.8,130.8,18.8z"/>
		</g>
	</g>
	<ellipse class="st15" cx="144.4" cy="19.7" rx="4.1" ry="4.1"/>
</g>
</svg>
