<svg xmlns="http://www.w3.org/2000/svg" viewBox="0 0 42.43 54.24"><defs><style>.cls-1{fill:#00ad46;}.cls-2{fill:#005f27;}</style></defs><title>Asset 8</title><g id="Layer_2" data-name="Layer 2"><g id="Layer_1-2" data-name="Layer 1"><path class="cls-1" d="M38.24.18C36.48,9.84,25.78,16.41,25.78,16.41c1.69-2.06,1.93-6.11,2-7.56,0-.16-.18-.27-.29-.14-2.84,3.37-11,2.76-18.49,9.9C4.23,23.11,3.7,29.21,4,33.3c.24-.23-.9,6.91-1.46,8.47a29.62,29.62,0,0,0-1.12,4q-.21,1-.35,2.06v.07c0,.33-.08.65-.11,1l0,.54c0,.19,0,.36,0,.58l3.88,0c0-.1,0-.25,0-.39v-.44c0-.29,0-.59.05-.89,0-.6.12-1.2.22-1.8a26,26,0,0,1,.82-3.56A24.52,24.52,0,0,1,7.58,38.7c13.35,3.07,19.51-.92,21-2.17a.2.2,0,0,0-.12-.35,21.48,21.48,0,0,1-6.07-.93c11.9-.58,17.85-5.83,19.64-17A26.31,26.31,0,0,0,38.61.09.21.21,0,0,0,38.24.18Z"/><path class="cls-2" d="M0,51l0-.61,0-.74,0-.47.07-.61.18-1.43.31-1.58a30.19,30.19,0,0,1,1-3.68,32.82,32.82,0,0,1,1.78-4.12,32.2,32.2,0,0,1,2.64-4.21,30.68,30.68,0,0,1,3.48-4,31.21,31.21,0,0,1,4.23-3.37c.77-.47,1.54-1,2.32-1.36s1.6-.8,2.38-1.15c1.58-.7,3.14-1.3,4.63-1.88s2.91-1.17,4.2-1.78a27.06,27.06,0,0,0,3.54-2,16.46,16.46,0,0,0,4.37-4.21,13.19,13.19,0,0,0,.87-1.49l.26-.56-.2.58a13.35,13.35,0,0,1-.71,1.6,17,17,0,0,1-4,4.82,28.26,28.26,0,0,1-3.42,2.48c-1.29.8-2.66,1.54-4.09,2.3s-2.89,1.51-4.31,2.34c-.71.42-1.4.85-2.08,1.3s-1.31,1-2,1.46a27.91,27.91,0,0,0-3.4,3.39,26.82,26.82,0,0,0-2.64,3.79,26.28,26.28,0,0,0-3,7.49,24.89,24.89,0,0,0-.53,3.13L6,47.78l0,1v.45l0,.47,0,.74,0,.62a3,3,0,1,1-6,.26A3.11,3.11,0,0,1,0,51Z"/></g></g></svg>