<svg xmlns="http://www.w3.org/2000/svg" viewBox="0 0 14.6 17.57"><defs><style>.cls-1{fill:#00ad46;}</style></defs><title>Asset 11</title><g id="Layer_2" data-name="Layer 2"><g id="Layer_1-2" data-name="Layer 1"><path class="cls-1" d="M13.12.06c-.62,3.39-4.38,5.7-4.38,5.7a5,5,0,0,0,.69-2.66c0-.06-.06-.09-.1-.05-1,1.19-3.85,1-6.5,3.48A6.3,6.3,0,0,0,1.09,11.7l.25-.24A8.79,8.79,0,0,1,3.78,9.89a9.43,9.43,0,0,1,1.66-.54,9.65,9.65,0,0,0-1.37.77,8.91,8.91,0,0,0-2.11,2,9.17,9.17,0,0,0-.65,1,9.82,9.82,0,0,0-.73,1.58,10.41,10.41,0,0,0-.4,1.41q-.07.36-.12.72v0c0,.11,0,.23,0,.35v.19c0,.07,0,.13,0,.2l1.36,0s0-.09,0-.14v-.15c0-.1,0-.21,0-.31s0-.42.08-.63a9.15,9.15,0,0,1,.29-1.25,8.62,8.62,0,0,1,.6-1.47c4.69,1.08,6.86-.32,7.4-.76a.07.07,0,0,0,0-.12,7.55,7.55,0,0,1-2.13-.33c4.18-.2,6.27-2.05,6.9-6A9.25,9.25,0,0,0,13.25,0,.07.07,0,0,0,13.12.06Z"/></g></g></svg>