<?xml version="1.0" encoding="utf-8"?>
<!-- Generator: Adobe Illustrator 20.1.0, SVG Export Plug-In . SVG Version: 6.00 Build 0)  -->
<svg version="1.1" id="Layer_1" xmlns="http://www.w3.org/2000/svg" xmlns:xlink="http://www.w3.org/1999/xlink" x="0px" y="0px"
	 viewBox="0 0 34 34" style="enable-background:new 0 0 34 34;" xml:space="preserve">
<title>Asset 2</title>
<g id="Layer_2">
	<g id="Layer_1-2">
		<g>
			<path d="M17,34C7.6,34,0,26.4,0,17S7.6,0,17,0s17,7.6,17,17S26.4,34,17,34z M17,2C8.7,2,2,8.7,2,17c0,8.3,6.7,15,15,15
				c8.3,0,15-6.7,15-15C32,8.7,25.3,2,17,2z"/>
		</g>
		<g>
			<path d="M21.9,28.1c-0.3,0-0.6,0-0.9-0.1c-3.7-0.6-7.2-2.5-9.8-5.2c-2.7-2.5-4.5-5.9-5.1-9.6c0,0,0,0,0-0.1c-0.3-3.3,1.2-6,4-7
				c1.2-0.4,2.5,0.2,3,1.3l1.3,2.6c0.4,0.9,0.2,2.1-0.5,2.8l-1.6,1.6c0.2,0.6,0.9,1.8,2.8,3.7c1.9,1.9,3.1,2.6,3.7,2.8l1.5-1.5
				c0.8-0.8,1.9-0.9,2.8-0.5l3.2,1.6c1.1,0.5,1.6,1.7,1.3,2.9C27.2,26.1,24.7,28.1,21.9,28.1z M8.2,12.9c0.5,3.2,2.1,6.3,4.5,8.5
				c2.3,2.5,5.4,4.1,8.7,4.6c2,0.3,4-1,4.5-3.1c0.1-0.3,0-0.5-0.2-0.6l-3.2-1.6c-0.2-0.1-0.4-0.1-0.5,0.1l-1.9,1.9
				c-0.2,0.2-0.5,0.3-0.8,0.3c-0.3,0-2.2-0.3-5.4-3.5c-3.2-3.2-3.5-5-3.5-5.4c0-0.3,0.1-0.6,0.3-0.8l2-2c0.1-0.1,0.2-0.3,0.1-0.5
				l-1.3-2.7C11.3,8,11,7.9,10.8,7.9C8.9,8.6,7.9,10.4,8.2,12.9z"/>
		</g>
	</g>
</g>
</svg>
