<svg xmlns="http://www.w3.org/2000/svg" viewBox="0 0 15.6 17.57"><defs><style>.cls-1{fill:#2c3e50;}</style></defs><title>Asset 16</title><g id="Layer_2" data-name="Layer 2"><g id="Layer_1-2" data-name="Layer 1"><path class="cls-1" d="M2.85,15.45H4.71v1.31H2.85a1.47,1.47,0,1,1,0-1.31Zm11.22-.82a1.47,1.47,0,0,0-1.32.82H10.89v1.31h1.86a1.47,1.47,0,1,0,1.32-2.13ZM15.6.82V3.13a.82.82,0,0,1-.82.82H.82A.82.82,0,0,1,0,3.13V.82A.82.82,0,0,1,.82,0h14A.82.82,0,0,1,15.6.82ZM4.46,2A1.29,1.29,0,1,0,3.17,3.26,1.29,1.29,0,0,0,4.46,2Zm3.68-.56H5.5V2.54H8.14ZM15.6,5.56V7.88a.82.82,0,0,1-.82.82H.82A.82.82,0,0,1,0,7.88V5.56a.82.82,0,0,1,.82-.82h14A.82.82,0,0,1,15.6,5.56ZM4.46,6.72A1.29,1.29,0,1,0,3.17,8,1.29,1.29,0,0,0,4.46,6.72Zm3.68-.56H5.5V7.28H8.14ZM0,12.62V10.31a.82.82,0,0,1,.82-.82h14a.82.82,0,0,1,.82.82v2.31a.82.82,0,0,1-.82.82H.82A.82.82,0,0,1,0,12.62ZM5.5,12H8.14V10.9H5.5Zm-3.62-.56a1.29,1.29,0,1,0,1.29-1.29A1.29,1.29,0,0,0,1.89,11.46Zm7.86,3.25H8.62v-.77H7v.77H5.85a.49.49,0,0,0-.49.49V17a.49.49,0,0,0,.49.49h3.9a.49.49,0,0,0,.49-.49V15.2A.49.49,0,0,0,9.75,14.71Z"/></g></g></svg>