<svg style="position: absolute; width: 0; height: 0; overflow: hidden;" version="1.1" xmlns="http://www.w3.org/2000/svg" xmlns:xlink="http://www.w3.org/1999/xlink">
<defs>
<symbol id="icon-ads" viewBox="0 0 33 32">
<title>ads</title>
<path class="path1" fill="#ff3011" d="M23.482 10.298c-0.493-0.843-1.349-1.427-2.347-1.541-2.286-3.553-4.418-5.902-5.134-5.505l-0.070 0.058-0.045 0.058c-0.012 0.022-0.023 0.047-0.031 0.074l-0.001 0.003c-0.001 0.015-0.002 0.033-0.002 0.051s0.001 0.036 0.002 0.054c-0 0.036-0 0.081-0 0.126s0 0 0 0 0 0.102 0 0.154v0c-0.002 0.026-0.002 0.056-0.002 0.086s0.001 0.061 0.003 0.091l-0-0.004c0 0.058 0 0.122 0 0.186v0c-0.794 1.869-3.398 5.837-7.942 9.92l-7.014 4.147c-0.533 0.32-0.884 0.895-0.884 1.552 0 0.334 0.090 0.646 0.248 0.914l2.6 4.472c0.32 0.533 0.895 0.884 1.552 0.884 0.334 0 0.646-0.090 0.914-0.248l7-4.040c5.805-1.92 10.541-2.163 12.563-1.92v0l0.147 0.109 0.141 0.096 0.134 0.070 0.115 0.051h0.307l0.083-0.032c0.691-0.397-0.282-3.418-2.221-7.162 0.159-0.363 0.252-0.786 0.252-1.23 0-0.538-0.136-1.045-0.375-1.487z"></path>
<path class="path2" fill="#ffbc00" d="M13.030 19.981l-3.162-5.472c2.373-2.206 4.45-4.677 6.199-7.381 1.035 2.154 2.007 4.085 3.106 5.933 1.077 1.873 2.281 3.653 3.601 5.336-3.581 0.063-6.886 0.667-10.019 1.659z"></path>
<path class="path3" fill="#fff" d="M23.642 15.571l0.147 0.333 0.083 0.192 0.102 0.237 0.077 0.186 0.090 0.224 0.070 0.179 0.083 0.218 0.064 0.16 0.083 0.218 0.045 0.134c0 0.083 0.058 0.16 0.083 0.237v0.083c0.038 0.109 0.070 0.211 0.102 0.307-1.569-1.818-2.996-3.846-4.211-6.009-1.289-2.137-2.369-4.391-3.215-6.756l0.137-0.015 0.051 0.064 0.166 0.198 0.090 0.102 0.147 0.179 0.102 0.128 0.147 0.186 0.115 0.147 0.154 0.198 0.122 0.154 0.16 0.218 0.115 0.16 0.224 0.314 0.134 0.192 0.218 0.314 0.122 0.179 0.186 0.275 0.134 0.205 0.096 0.147c-0.268 0.076-0.502 0.176-0.719 0.302l3.151 5.419c0.244-0.133 0.454-0.286 0.642-0.462l0.081 0.162 0.109 0.224 0.141 0.294 0.096 0.205 0.16 0.333z"></path>
<path class="path4" fill="#00ad46" d="M16.774 30.010c0.125 0.088 0.206 0.232 0.206 0.394 0 0.194-0.115 0.361-0.28 0.436l-1.808 1.044c-0.144 0.076-0.316 0.12-0.497 0.12-0.253 0-0.485-0.086-0.67-0.231l-5.118-4.408c-0.176-0.159-0.41-0.255-0.667-0.255-0.138 0-0.27 0.028-0.389 0.079-0.072 0.034-0.163 0.056-0.26 0.056-0.254 0-0.473-0.148-0.576-0.362-0.058-0.103-0.091-0.223-0.091-0.349 0-0.265 0.146-0.497 0.361-0.619l3.895-2.274c0.104-0.063 0.23-0.101 0.364-0.101 0.257 0 0.482 0.136 0.607 0.341 0.075 0.106 0.119 0.234 0.119 0.373 0 0.234-0.126 0.439-0.313 0.55-0.304 0.174-0.31 0.533-0.003 0.789l0.307 0.269c0.138 0.138 0.328 0.223 0.539 0.223 0.157 0 0.303-0.047 0.424-0.129 0.099-0.070 0.226-0.114 0.364-0.114 0.211 0 0.399 0.103 0.516 0.261 0.257 0.283 0.308 0.642 0.116 0.834s-0.102 0.525 0.192 0.781z"></path>
<path class="path5" fill="#2f83ff" d="M30.95 7.219l-4.166 2.381c-0.135 0.066-0.293 0.104-0.46 0.104-0.59 0-1.069-0.479-1.069-1.069 0-0.363 0.18-0.683 0.457-0.876l4.17-2.409c0.135-0.066 0.293-0.104 0.46-0.104 0.59 0 1.069 0.479 1.069 1.069 0 0.363-0.18 0.683-0.457 0.876z"></path>
<path class="path6" fill="#2f83ff" d="M32.672 14.688c-0.153 0.090-0.337 0.143-0.533 0.143-0.026 0-0.052-0.001-0.078-0.003l-4.797-0.333c-0.515-0.082-0.905-0.524-0.905-1.056 0-0.584 0.469-1.059 1.051-1.069l4.801 0.333c0.552 0.046 0.983 0.505 0.983 1.065 0 0.389-0.207 0.729-0.518 0.916z"></path>
<path class="path7" fill="#2f83ff" d="M23.232 6.31c-0.145 0.078-0.317 0.124-0.5 0.124-0.59 0-1.069-0.479-1.069-1.069 0-0.161 0.036-0.314 0.099-0.451l2.090-4.32c0.185-0.334 0.536-0.557 0.938-0.557 0.59 0 1.069 0.479 1.069 1.069 0 0.153-0.032 0.298-0.090 0.429l-2.090 4.32c-0.101 0.195-0.255 0.351-0.442 0.452z"></path>
</symbol>
<symbol id="icon-advert" viewBox="0 0 33 32">
<title>advert</title>
<path class="path1" fill="#ff3011" d="M23.476 10.29c-0.491-0.841-1.341-1.426-2.334-1.547-2.292-3.553-4.423-5.902-5.115-5.465v0 0 0 0 0 0 0.492s0 0.091 0 0.146v0c-0.002 0.027-0.003 0.059-0.003 0.091s0.001 0.064 0.003 0.095l-0-0.004s0 0.128 0 0.182v0c-2.11 3.9-4.829 7.194-8.068 9.882l-7.067 4.051c-0.537 0.323-0.89 0.903-0.89 1.565 0 0.328 0.087 0.636 0.239 0.903l2.6 4.49c0.323 0.537 0.903 0.89 1.565 0.89 0.328 0 0.636-0.087 0.903-0.239l7.003-3.966c3.326-1.23 7.167-1.942 11.175-1.942 0.49 0 0.977 0.011 1.461 0.032l-0.069-0.002 0.146 0.109 0.146 0.091h0.565c0.82-0.273-0.237-3.297-2.058-7.030 0.155-0.358 0.245-0.775 0.245-1.214 0-0.594-0.165-1.15-0.453-1.623zM13.040 20.034l-3.169-5.464c2.372-2.222 4.447-4.714 6.191-7.439 1.035 2.153 2.006 4.087 3.104 5.937 1.077 1.88 2.281 3.665 3.602 5.354-3.58 0.074-6.877 0.688-10.002 1.688zM23.677 15.572l0.146 0.328v0.182l0.109 0.237v1.548l0.109 0.31c-1.573-1.818-3.002-3.845-4.22-6.007-1.061-2.094-1.925-4.333-2.566-6.664l0.157-0.042 0.164 0.2v0.109l0.146 0.182 0.109 0.128 0.146 0.182 0.109 0.146 0.146 0.2 0.128 0.164 0.164 0.219 0.109 0.164 0.219 0.31 0.128 0.2 0.219 0.31 0.128 0.182 0.182 0.273 0.146 0.2 0.091 0.146c-0.27 0.074-0.506 0.174-0.725 0.299l3.148 5.456c0.228-0.134 0.425-0.284 0.602-0.456l-0.001 0.165 0.364 0.328 0.146 0.291 0.091 0.2 0.164 0.328zM16.774 30.015c0.151 0.081 0.253 0.238 0.253 0.419s-0.101 0.338-0.25 0.418l-1.824 1.039c-0.144 0.075-0.315 0.119-0.497 0.119-0.253 0-0.486-0.086-0.671-0.23l-5.17-4.46c-0.177-0.161-0.413-0.259-0.672-0.259-0.139 0-0.271 0.028-0.391 0.079-0.072 0.034-0.164 0.055-0.261 0.055-0.257 0-0.479-0.148-0.587-0.363-0.058-0.103-0.091-0.223-0.091-0.349 0-0.265 0.145-0.496 0.359-0.618l3.956-2.187c0.103-0.062 0.228-0.099 0.362-0.099 0.254 0 0.476 0.133 0.602 0.333 0.069 0.106 0.108 0.232 0.108 0.367 0 0.236-0.121 0.443-0.304 0.564-0.312 0.184-0.312 0.53-0.003 0.785l0.31 0.273c0.138 0.137 0.328 0.221 0.538 0.221 0.159 0 0.307-0.049 0.43-0.132 0.098-0.069 0.224-0.111 0.359-0.111 0.209 0 0.395 0.101 0.511 0.257 0.256 0.293 0.311 0.657 0.11 0.839s-0.109 0.528 0.2 0.783zM30.962 7.285l-4.171 2.331c-0.111 0.042-0.239 0.067-0.372 0.067-0.593 0-1.075-0.481-1.075-1.075 0-0.324 0.144-0.615 0.371-0.812l4.172-2.405c0.154-0.089 0.34-0.142 0.537-0.142 0.601 0 1.089 0.487 1.089 1.089 0 0.404-0.22 0.756-0.546 0.944zM32.692 14.752c-0.154 0.093-0.34 0.148-0.538 0.148-0.022 0-0.044-0.001-0.066-0.002l-4.769-0.328c-0.505-0.094-0.883-0.532-0.883-1.057 0-0.577 0.455-1.048 1.026-1.073l4.756 0.31c0.546 0.056 0.968 0.513 0.968 1.069 0 0.386-0.203 0.724-0.508 0.913zM23.258 6.375c-0.148 0.082-0.325 0.13-0.513 0.13-0.593 0-1.075-0.481-1.075-1.075 0-0.159 0.035-0.311 0.097-0.447l2.092-4.383c0.196-0.285 0.52-0.469 0.887-0.469 0.593 0 1.075 0.481 1.075 1.075 0 0.115-0.018 0.226-0.052 0.331l-2.092 4.327c-0.101 0.187-0.25 0.336-0.431 0.434z"></path>
</symbol>
<symbol id="icon-brand" viewBox="0 0 34 32">
<title>brand</title>
<path class="path1" fill="#ffbc00" d="M21.509 30.27c0 0.352-0.285 0.637-0.637 0.637h-1.821l-0.091 0.164c-0.372 0.535-0.969 0.891-1.652 0.929l-0.716 0c-0.688-0.038-1.286-0.393-1.653-0.922l-0.096-0.116h-1.821c-0.352 0-0.637-0.285-0.637-0.637s0.285-0.637 0.637-0.637h7.813c0.012-0.001 0.025-0.001 0.039-0.001 0.333 0 0.607 0.256 0.635 0.582zM8.524 16.993c0-4.667 3.784-8.451 8.451-8.451s8.451 3.784 8.451 8.451c0 4.535-2.677 5.846-4.080 9.106h-8.724c-1.421-3.26-4.098-4.754-4.098-9.106zM16.974 15.171c-0.234 0.001-0.442 0.106-0.582 0.272-0.092 0.129-0.566 0.657-0.984 0.657s-0.656-0.346-0.838-0.637c-0.205-0.362-0.57-0.612-0.996-0.655-0.479-0-1.044 0.291-1.044 1.639 0 2.167 1.311 7.649 4.462 7.668v0c3.133 0 4.462-5.464 4.462-7.668 0-1.348-0.565-1.639-1.038-1.639-0.432 0.044-0.797 0.294-0.998 0.649-0.204 0.298-0.513 0.644-0.841 0.644s-0.856-0.492-0.983-0.656c-0.138-0.197-0.364-0.325-0.619-0.328zM15.372 17.612v0c-0.497-0.003-0.953-0.174-1.316-0.459 0.184 1.668 0.723 3.177 1.542 4.492 0.248 0.486 0.761 0.861 1.367 0.938 0.603-0.080 1.1-0.438 1.37-0.937 0.809-1.29 1.355-2.811 1.531-4.443-0.349 0.231-0.799 0.401-1.287 0.408-0.619-0.021-1.178-0.259-1.607-0.64-0.424 0.38-0.982 0.618-1.596 0.64zM20.835 27.064h-7.649c-0.422 0-0.765 0.342-0.765 0.765s0.342 0.765 0.765 0.765h7.577c0.422 0 0.765-0.342 0.765-0.765s-0.342-0.765-0.765-0.765zM18.213 5.1v-3.879c0.006-0.045 0.009-0.096 0.009-0.149 0-0.674-0.546-1.22-1.22-1.22s-1.22 0.546-1.22 1.22c0 0.052 0.003 0.104 0.010 0.155l-0.001 3.873c-0.006 0.045-0.009 0.096-0.009 0.149 0 0.674 0.546 1.22 1.22 1.22s1.22-0.546 1.22-1.22c0-0.052-0.003-0.104-0.010-0.155zM18.213 5.1v-3.879c0.006-0.045 0.009-0.096 0.009-0.149 0-0.674-0.546-1.22-1.22-1.22s-1.22 0.546-1.22 1.22c0 0.052 0.003 0.104 0.010 0.155l-0.001 3.873c-0.006 0.045-0.009 0.096-0.009 0.149 0 0.674 0.546 1.22 1.22 1.22s1.22-0.546 1.22-1.22c0-0.052-0.003-0.104-0.010-0.155zM9.434 9.434c0.217-0.22 0.351-0.522 0.351-0.856s-0.134-0.636-0.351-0.856l-2.75-2.75c-0.204-0.16-0.465-0.256-0.748-0.256-0.674 0-1.22 0.546-1.22 1.22 0 0.283 0.096 0.543 0.258 0.75l2.748 2.747c0.22 0.217 0.522 0.351 0.856 0.351s0.636-0.134 0.856-0.351zM6.32 16.974c0-0.674-0.546-1.22-1.22-1.22h-3.879c-0.679 0-1.229 0.55-1.229 1.229s0.55 1.229 1.229 1.229h3.879c0 0 0 0 0 0 0.674 0 1.22-0.546 1.22-1.22 0-0.006-0-0.013-0-0.019zM6.702 28.977l2.732-2.75c0.289-0.225 0.473-0.573 0.473-0.965 0-0.674-0.546-1.22-1.22-1.22-0.391 0-0.739 0.184-0.963 0.47l-2.752 2.808c-0.289 0.225-0.473 0.573-0.473 0.965 0 0.674 0.546 1.22 1.22 1.22 0.391 0 0.739-0.184 0.963-0.47zM28.995 28.977c0.217-0.22 0.351-0.522 0.351-0.856s-0.134-0.636-0.351-0.856l-2.768-2.75c-0.225-0.289-0.573-0.473-0.965-0.473-0.674 0-1.22 0.546-1.22 1.22 0 0.391 0.184 0.739 0.47 0.962l2.808 2.752c0.22 0.217 0.522 0.351 0.856 0.351s0.636-0.134 0.856-0.351zM33.967 16.974c-0.010-0.654-0.532-1.182-1.182-1.202l-3.936-0c-0.607 0.077-1.071 0.59-1.071 1.211s0.465 1.134 1.065 1.211l3.94 0.001c0.65-0.030 1.166-0.564 1.166-1.219 0-0 0-0.001 0-0.001zM26.227 9.434l2.75-2.75c0.351-0.218 0.581-0.602 0.581-1.039 0-0.674-0.546-1.22-1.22-1.22-0.424 0-0.797 0.216-1.015 0.543l-2.808 2.755c-0.16 0.204-0.256 0.465-0.256 0.748 0 0.674 0.546 1.22 1.22 1.22 0.283 0 0.543-0.096 0.75-0.258z"></path>
</symbol>
<symbol id="icon-clean" viewBox="0 0 28 32">
<title>clean</title>
<path class="path1" fill="#95a5a6" d="M28.248 21.855c-0.087 0.473-0.322 0.88-0.654 1.182-0.072 0.073-0.138 0.151-0.198 0.232l-3.009 2.902-0.528 0.401c-0.328 0.273-0.692 0.492-1.056 0.765l-2.258 1.384c-1.43 0.778-3.106 1.494-4.852 2.054-2.097 0.707-4.276 1.126-6.538 1.223-0.795 0.002-1.869-1.82-2.215-2.457-1.404-2.241-2.674-4.824-3.675-7.538-0.315-0.807-0.509-1.416-0.647-2.046 0.44-0.175 0.835-0.313 1.21-0.486 0.283-0.11 0.685-0.235 1.096-0.334 0.067 0.169 0.249 0.496 0.322 0.697l0.255 0.692c1.069 2.935 2.297 5.452 3.749 7.817 0.15 0.161 0.398 0.554 0.616 0.966 1.043-0.030 1.981-0.192 2.888-0.43 0.146-0.059 0.448-0.124 0.761-0.155l-0.764-0.949c-0.228-0.313-0.462-0.676-0.678-1.051-0.159-0.279-0.214-0.388-0.342-0.625l-0.601-1.202c-0.114-0.183-0.212-0.394-0.285-0.616 0.213-0.021 1.615 1.309 1.943 1.527 1.105 0.912 2.464 1.557 3.956 1.814 0.36 0.007 2.837-1.322 3.001-1.377-0.164-0.255-0.401-0.401-0.601-0.656l-0.273-0.364c-0.109-0.146-0.164-0.182-0.273-0.364-0.348-0.459-0.658-0.98-0.908-1.533 0.097 0.049 0.204 0.151 0.306 0.257 0.911 0.75 2.018 1.293 3.232 1.541 0.303 0.008 0.613-0.247 0.886-0.447l0.765-0.601c0.291-0.219 1.33-1.056 1.402-1.348-2.031-0.265-3.875-0.802-5.586-1.58-0.52-0.219-1.046-0.482-1.555-0.773l-0.272-0.179-1.056-0.692c-0.47-0.357-0.885-0.715-1.278-1.096-0.86-0.744-1.573-1.638-2.104-2.643l1.579-0.942c0.162-0.1 0.349-0.187 0.546-0.25 0.182 0.25 0.31 0.505 0.492 0.778 0.365 0.532 0.761 0.997 1.199 1.418 2.244 1.93 5.067 3.239 8.175 3.637l1.262 0.154c0.382 0 0.892 0 1.238 0 0.783 0 1.311 0.401 1.311 1.33zM13.678 12.749c0-0.474-0.565-1.056-0.892-1.366-0.697-0.64-1.631-1.032-2.656-1.032-0.61 0-1.187 0.139-1.702 0.386l-2.399 1.064c-1.145 0.448-2.117 0.931-3.038 1.488-0.88 0.676-1.499 1.819-1.499 3.108 0 0.571 0.122 1.113 0.34 1.603 0.278-0.078 0.535-0.18 0.764-0.322l8.059-3.637c0.474-0.182 2.641-1.238 2.932-1.275zM5.773 6.429c-0.128-0.219-0.182-0.401-0.31-0.619l-0.674-1.202c-0.128-0.219-0.182-0.401-0.31-0.619s-0.2-0.346-0.328-0.619l-0.984-1.821c-0.583-1.202-0.656-1.548-1.475-1.548s-1.694 0.656-1.694 1.257c0 0.291 1.53 4.335 1.821 5.009s0.31 0.801 0.455 1.238 0.273 0.82 0.437 1.257l0.929 2.459 3.825-1.694zM17.539 13.842c-0.016 0.117-0.025 0.251-0.025 0.388 0 0.848 0.351 1.614 0.917 2.161 0.565 0.551 1.337 0.891 2.188 0.891 0.755 0 1.448-0.267 1.989-0.712l0.559-0.56c0.36-0.503 0.576-1.132 0.576-1.81 0-0.753-0.265-1.443-0.708-1.984-0.14-0.208-0.323-0.384-0.535-0.518-0.54-0.412-1.215-0.658-1.947-0.658-0.451 0-0.879 0.093-1.268 0.261-0.306 0.162-0.587 0.362-0.838 0.595-0.512 0.505-0.849 1.191-0.908 1.954zM15.226 6.939v0.346c-0.010 0.071-0.015 0.153-0.015 0.237 0 1.014 0.822 1.837 1.837 1.837 0.931 0 1.7-0.693 1.82-1.59 0.098-0.225 0.154-0.476 0.154-0.741 0-0.873-0.614-1.603-1.434-1.78-0.183-0.061-0.381-0.095-0.586-0.095s-0.402 0.034-0.587 0.096c-0.639 0.26-1.097 0.871-1.134 1.595zM19.852 2.513c0.016 0.681 0.573 1.228 1.256 1.228 0.619 0 1.134-0.448 1.238-1.038 0.009-0.060 0.014-0.12 0.014-0.181 0-0.35-0.152-0.665-0.394-0.882-0.225-0.21-0.527-0.339-0.859-0.339-0.672 0-1.221 0.528-1.255 1.191z"></path>
</symbol>
<symbol id="icon-email" viewBox="0 0 32 32">
<title>email</title>
<path class="path1" d="M28.329 32c0 0-0.094 0 0 0h-24.847c-1.882 0-3.482-1.6-3.482-3.482v-14.965c0-1.035 0.471-1.976 1.318-2.635l11.388-9.788c1.882-1.6 4.612-1.6 6.494 0l11.388 9.694c0.753 0.659 1.224 1.6 1.318 2.635v14.965c0 0.941-0.376 1.788-1.035 2.447-0.753 0.753-1.6 1.129-2.541 1.129zM15.906 1.882c-0.753 0-1.412 0.282-2.071 0.753l-11.388 9.694c-0.376 0.282-0.565 0.753-0.565 1.224v14.965c0 0.847 0.753 1.6 1.6 1.6h24.753c0 0 0 0 0 0v0.941l0.094-0.941c0.471 0 0.847-0.188 1.129-0.471s0.471-0.753 0.471-1.129v-14.965c0-0.471-0.188-0.941-0.565-1.224l-11.388-9.694c-0.659-0.565-1.318-0.753-2.071-0.753z"></path>
<path class="path2" d="M15.812 22.776c-0.188 0-0.282 0-0.471-0.094l-12.235-6.776c-0.471-0.282-0.659-0.847-0.376-1.318s0.847-0.659 1.318-0.376l11.765 6.588 11.765-6.588c0.471-0.282 1.035-0.094 1.318 0.376s0.094 1.035-0.376 1.318l-12.235 6.776c-0.188 0.094-0.376 0.094-0.471 0.094z"></path>
<path class="path3" d="M23.435 18.259c-0.565 0-0.941-0.376-0.941-0.941v-5.929h-13.271v5.929c0 0.565-0.376 0.941-0.941 0.941s-0.941-0.376-0.941-0.941v-6.871c0-0.565 0.376-0.941 0.941-0.941h15.153c0.565 0 0.941 0.376 0.941 0.941v6.871c0 0.565-0.376 0.941-0.941 0.941z"></path>
<path class="path4" d="M20.141 14.871h-8.471c-0.565 0-0.941-0.376-0.941-0.941s0.376-0.941 0.941-0.941h8.471c0.565 0 0.941 0.376 0.941 0.941s-0.471 0.941-0.941 0.941z"></path>
<path class="path5" d="M20.141 17.318h-8.471c-0.565 0-0.941-0.376-0.941-0.941s0.376-0.941 0.941-0.941h8.471c0.565 0 0.941 0.376 0.941 0.941s-0.471 0.941-0.941 0.941z"></path>
</symbol>
<symbol id="icon-facebook" viewBox="0 0 32 32">
<title>facebook</title>
<path class="path1" fill="#3c5a99" d="M16 0c-8.837 0-16 7.163-16 16s7.163 16 16 16c8.837 0 16-7.163 16-16s-7.163-16-16-16z"></path>
<path class="path2" fill="#fff" d="M20.26 15.73h-2.7v9.64h-4v-9.64h-1.9v-3.4h1.9v-2.2c-0.005-0.074-0.008-0.161-0.008-0.248 0-2.077 1.683-3.76 3.76-3.76 0.087 0 0.174 0.003 0.26 0.009l2.988-0.001v3.27h-2.16c-0.011-0.001-0.024-0.001-0.038-0.001-0.453 0-0.82 0.367-0.82 0.82 0 0.039 0.003 0.078 0.008 0.115l-0 1.996h3.050z"></path>
</symbol>
<symbol id="icon-googlelove" viewBox="0 0 36 32">
<title>googlelove</title>
<path class="path1" fill="#ff3011" d="M18.208 4.685c-6.048-9.107-18.208-3.776-18.208 6.144 0 6.707 6.061 11.52 10.624 15.104 4.736 3.744 6.067 4.55 7.584 6.067 1.517-1.517 2.784-2.4 7.59-6.067 4.627-3.533 10.624-8.467 10.624-15.181 0-9.843-12.141-15.174-18.214-6.067z"></path>
<path class="path2" fill="#fff" d="M15.558 7.834c-2.15 0.765-3.87 2.287-4.873 4.239-0.349 0.676-0.61 1.404-0.768 2.169-0.113 0.558-0.173 1.136-0.173 1.727 0 3.977 2.686 7.328 6.342 8.336 0.752 0.199 1.545 0.305 2.363 0.305 0.752 0 1.483-0.090 2.183-0.259 2.719-0.608 4.897-2.686 5.652-5.361 0.256-0.881 0.396-1.832 0.396-2.816 0-0.646-0.060-1.277-0.176-1.889l-8.118 0.063v3.373h4.71c-0.201 1.116-0.833 2.057-1.714 2.66-0.561 0.376-1.208 0.641-1.905 0.76-0.339 0.064-0.695 0.098-1.060 0.098s-0.721-0.034-1.066-0.1c-0.695-0.148-1.34-0.437-1.9-0.837-0.895-0.638-1.584-1.544-1.951-2.601-0.187-0.539-0.288-1.116-0.288-1.718s0.101-1.179 0.288-1.717c0.272-0.762 0.709-1.445 1.269-2.005 0.925-0.955 2.219-1.548 3.652-1.548 0.524 0 1.029 0.079 1.504 0.226 0.696 0.224 1.322 0.609 1.834 1.111l1.587-1.588c0.282-0.282 0.57-0.557 0.838-0.851-0.78-0.728-1.706-1.311-2.726-1.702-0.95-0.357-1.982-0.553-3.060-0.553-1.017 0-1.994 0.174-2.902 0.495z"></path>
</symbol>
<symbol id="icon-heart" viewBox="0 0 36 32">
<title>heart</title>
<path class="path1" fill="#ff3011" d="M18.213 4.681c-6.065-9.106-18.213-3.77-18.213 6.156 0 6.702 6.065 11.492 10.618 15.098s6.065 4.553 7.595 6.065c2.282-2.077 4.758-4.068 7.353-5.903 4.868-3.695 10.86-8.631 10.86-15.333 0-9.853-12.148-15.19-18.213-6.083z"></path>
</symbol>
<symbol id="icon-info" viewBox="0 0 32 32">
<title>info</title>
<path class="path1" d="M16.009 0c-8.842 0-16.009 7.168-16.009 16.009s7.168 16.009 16.009 16.009c8.842 0 16.009-7.168 16.009-16.009s-7.168-16.009-16.009-16.009zM20.872 22.766c-0.668 1.25-1.562 2.295-2.636 3.116-1.844 1.401-5.305 3.168-7.308 1.838s1.238-7.832 1.238-7.832c0.382-0.729 3.078-6.411 2.659-6.721s-3.898 3.606-5.027 2.969 2.441-3.388 3.151-3.934 5.045-3.096 7.085-0.82c0.301 0.403 0.482 0.912 0.482 1.463 0 0.375-0.084 0.73-0.234 1.048-0.394 1.169-2.361 6.013-2.361 6.013s-0.492 1.22-0.911 2.094-0.947 2.477-0.346 2.859c1.293 0.838 3.388-4.061 4.389-3.388 0.328 0.255-0.2 1.293-0.2 1.293zM22.347 6.721c-0.21 1.452-1.446 2.555-2.94 2.555-0.132 0-0.262-0.009-0.39-0.025-0.586 0.002-2.608 0.002-2.353-2.676 0.153-1.55 1.45-2.751 3.028-2.751 0.12 0 0.239 0.007 0.356 0.021 0.001-0.002 0.019-0.002 0.038-0.002 1.277 0 2.313 1.036 2.313 2.313 0 0.201-0.026 0.396-0.074 0.581z"></path>
</symbol>
<symbol id="icon-location" viewBox="0 0 25 32">
<title>location</title>
<path class="path1" d="M12.329 32c-0.094 0-0.188 0-0.282 0-0.565-0.094-1.129-0.376-1.412-0.847-3.2-3.859-10.635-13.459-10.635-18.824 0-6.776 5.553-12.329 12.329-12.329v0c6.776 0 12.329 5.553 12.329 12.329 0 5.365-7.435 14.965-10.635 18.824-0.094 0.094-0.282 0.282-0.376 0.376-0.376 0.282-0.847 0.471-1.318 0.471zM12.329 1.882c-5.741 0-10.447 4.706-10.447 10.447 0 3.859 5.271 11.671 10.165 17.6 0.094 0.188 0.188 0.188 0.282 0.188 0 0 0.094 0 0.188-0.094 0 0 0.094-0.094 0.094-0.094 2.353-2.918 10.165-12.706 10.165-17.6 0-5.741-4.706-10.447-10.447-10.447v0zM12.329 17.6c-1.506 0-2.824-0.565-3.953-1.6-1.035-1.035-1.6-2.447-1.6-3.953s0.565-2.918 1.6-3.953 2.447-1.6 3.953-1.6c1.506 0 2.918 0.565 3.953 1.6s1.6 2.447 1.6 3.953c0 3.012-2.447 5.553-5.553 5.553v0c0 0 0 0 0 0zM12.329 8.376c0 0 0 0 0 0-1.035 0-1.882 0.376-2.635 1.129-0.659 0.659-1.035 1.6-1.035 2.635 0 0.941 0.376 1.882 1.129 2.635 0.659 0.659 1.694 1.129 2.635 1.035v0c1.976 0 3.671-1.694 3.671-3.671 0-1.035-0.376-1.882-1.129-2.635s-1.694-1.129-2.635-1.129z"></path>
</symbol>
<symbol id="icon-organic" viewBox="0 0 25 32">
<title>organic</title>
<path class="path1" fill="#00ad46" d="M22.56 0.106c-1.038 5.699-7.351 9.575-7.351 9.575 0.997-1.215 1.139-3.605 1.18-4.46 0-0.094-0.106-0.159-0.171-0.083-1.676 1.988-6.49 1.628-10.909 5.841-2.814 2.655-3.127 6.254-2.95 8.667 0.142-0.136-0.531 4.077-0.861 4.997-0.241 0.644-0.469 1.434-0.641 2.246q-0.144 0.704-0.227 1.329v0.041c0 0.195-0.047 0.383-0.065 0.59v0.319c0 0.112 0 0.212 0 0.342h2.289c0-0.059 0-0.148 0-0.23v-0.26c0-0.171 0-0.348 0.030-0.525 0-0.354 0.071-0.708 0.13-1.062 0.129-0.813 0.298-1.522 0.513-2.209 0.249-0.857 0.581-1.687 0.982-2.475 7.838 1.893 11.472-0.461 12.351-1.198 0.025-0.022 0.040-0.053 0.040-0.089 0-0.063-0.049-0.114-0.111-0.118-1.282-0.011-2.512-0.211-3.671-0.573 7.11-0.318 10.621-3.415 11.677-10.005 0.147-0.802 0.231-1.725 0.231-2.667 0-2.974-0.837-5.753-2.287-8.114 0.016 0.039-0.019 0.021-0.058 0.021-0.060 0-0.11 0.042-0.121 0.099z"></path>
<path class="path2" fill="#005f27" d="M0 30.088v-1.074l0.041-0.36 0.106-0.844 0.183-0.932c0.177-0.861 0.381-1.589 0.628-2.296 0.304-0.838 0.658-1.641 1.063-2.412 0.453-0.847 0.969-1.66 1.542-2.427 0.605-0.825 1.279-1.596 2.012-2.305 0.752-0.715 1.567-1.369 2.434-1.951 0.521-0.319 0.975-0.632 1.435-0.844s0.944-0.472 1.404-0.678c0.932-0.413 1.852-0.767 2.732-1.109s1.717-0.69 2.478-1.050c0.81-0.383 1.495-0.776 2.145-1.216 0.96-0.638 1.816-1.464 2.502-2.419 0.19-0.277 0.361-0.565 0.513-0.864l0.174-0.375-0.118 0.342c-0.139 0.375-0.28 0.687-0.44 0.986-0.605 1.070-1.393 2.012-2.323 2.788-0.612 0.52-1.271 1.002-1.964 1.435-0.831 0.513-1.639 0.949-2.483 1.398s-1.705 0.891-2.543 1.381c-0.419 0.248-0.826 0.501-1.227 0.767s-0.773 0.59-1.18 0.861c-0.732 0.616-1.388 1.271-1.986 1.976-0.571 0.681-1.086 1.412-1.537 2.185-0.808 1.347-1.418 2.822-1.789 4.389-0.149 0.618-0.259 1.247-0.328 1.887l0.065 0.861v1.935c0.001 0.023 0.002 0.050 0.002 0.077 0 0.978-0.793 1.772-1.772 1.772-0.951 0-1.728-0.75-1.77-1.691-0.002-0.032-0.003-0.065-0.003-0.098s0.001-0.066 0.003-0.099z"></path>
</symbol>
<symbol id="icon-organicleaf" viewBox="0 0 27 32">
<title>organicleaf</title>
<path class="path1" fill="#00ad46" d="M23.895 0.109c-1.129 6.174-7.977 10.381-7.977 10.381 0.791-1.322 1.259-2.917 1.259-4.621 0-0.079-0.001-0.157-0.003-0.235 0-0.098-0.109-0.152-0.182-0.080-1.821 2.167-7.012 1.821-11.838 6.338-2.014 2.065-3.256 4.891-3.256 8.007 0 0.497 0.032 0.986 0.093 1.466l0.449-0.494c1.266-1.154 2.735-2.115 4.341-2.819 0.956-0.421 1.965-0.759 3.010-1.001-0.848 0.423-1.666 0.891-2.44 1.419-1.43 0.978-2.7 2.184-3.753 3.564-0.425 0.564-0.816 1.159-1.17 1.778-0.522 0.897-0.97 1.846-1.333 2.836-0.305 0.825-0.556 1.685-0.746 2.568q-0.15 0.78-0.241 1.436v0c0 0.2 0 0.419 0 0.637v0.346c0 0.128 0 0.237 0 0.364h2.477s0-0.164 0-0.255v-0.273c0-0.182 0-0.382 0-0.565s0-0.765 0.146-1.147c0.142-0.882 0.326-1.65 0.56-2.395 0.286-0.916 0.657-1.803 1.102-2.645 8.501 2.052 12.453-0.497 13.436-1.299 0.037-0.023 0.062-0.063 0.062-0.109s-0.025-0.087-0.061-0.109c-1.39-0.015-2.722-0.234-3.977-0.628 7.71-0.338 11.517-3.707 12.664-10.901 0.137-0.806 0.215-1.735 0.215-2.682 0-3.335-0.969-6.444-2.641-9.060 0.019 0.023-0.026-0.008-0.078-0.008-0.072 0-0.13 0.058-0.13 0.13 0 0.020 0.004 0.039 0.012 0.055z"></path>
</symbol>
<symbol id="icon-phone" viewBox="0 0 32 32">
<title>phone</title>
<path class="path1" fill="#3498db" d="M16 0c-8.837 0-16 7.163-16 16s7.163 16 16 16c8.837 0 16-7.163 16-16s-7.163-16-16-16zM20.22 25.72c-6.696-1.441-11.979-6.325-13.964-12.668-0.796-2.352 0.144-5.912 2.684-6.712s3.92 2.78 4.28 5.040l-2.24 2.24s-0.060 1.4 3.020 4.38 4.46 3 4.46 3l2.6-2.6c1.888 0.708 3.517 1.563 5.019 2.591-0.192 2.643-2.404 4.784-5.115 4.784-0.263 0-0.52-0.020-0.772-0.059z"></path>
</symbol>
<symbol id="icon-phoneline" viewBox="0 0 32 32">
<title>phoneline</title>
<path class="path1" d="M16 32c-8.847 0-16-7.153-16-16s7.153-16 16-16 16 7.153 16 16-7.153 16-16 16zM16 1.882c-7.812 0-14.118 6.306-14.118 14.118s6.306 14.118 14.118 14.118c7.812 0 14.118-6.306 14.118-14.118s-6.306-14.118-14.118-14.118z"></path>
<path class="path2" d="M20.612 26.447c-0.282 0-0.565 0-0.847-0.094-3.482-0.565-6.776-2.353-9.224-4.894-2.541-2.353-4.235-5.553-4.8-9.035 0 0 0 0 0-0.094-0.282-3.106 1.129-5.647 3.765-6.588 1.129-0.376 2.353 0.188 2.824 1.224l1.224 2.447c0.376 0.847 0.188 1.976-0.471 2.635l-1.506 1.506c0.188 0.565 0.847 1.694 2.635 3.482s2.918 2.447 3.482 2.635l1.412-1.412c0.753-0.753 1.788-0.847 2.635-0.471l3.012 1.506c1.035 0.471 1.506 1.6 1.224 2.729-0.376 2.541-2.729 4.424-5.365 4.424zM7.718 12.141c0.471 3.012 1.976 5.929 4.235 8 2.165 2.353 5.082 3.859 8.188 4.329 1.882 0.282 3.765-0.941 4.235-2.918 0.094-0.282 0-0.471-0.188-0.565l-3.012-1.506c-0.188-0.094-0.376-0.094-0.471 0.094l-1.788 1.788c-0.188 0.188-0.471 0.282-0.753 0.282s-2.071-0.282-5.082-3.294c-3.012-3.012-3.294-4.706-3.294-5.082 0-0.282 0.094-0.565 0.282-0.753l1.882-1.882c0.094-0.094 0.188-0.282 0.094-0.471l-1.224-2.541c-0.188-0.094-0.471-0.188-0.659-0.188-1.788 0.659-2.729 2.353-2.447 4.706z"></path>
</symbol>
<symbol id="icon-servers" viewBox="0 0 28 32">
<title>servers</title>
<path class="path1" d="M5.191 28.139h3.388v2.386h-3.388c-0.449 0.887-1.353 1.484-2.397 1.484-1.479 0-2.677-1.199-2.677-2.677s1.199-2.677 2.677-2.677c1.044 0 1.948 0.597 2.39 1.469zM25.625 26.645c-0.001 0-0.002 0-0.003 0-1.047 0-1.954 0.602-2.394 1.478l-3.395 0.015v2.386h3.388c0.45 0.882 1.352 1.475 2.392 1.475 1.479 0 2.677-1.199 2.677-2.677 0-1.474-1.192-2.671-2.665-2.677zM28.412 1.493v4.207c0 0.825-0.669 1.493-1.493 1.493h-25.425c-0.825 0-1.493-0.669-1.493-1.493v-4.207c0-0.825 0.669-1.493 1.493-1.493h25.498c0.793 0.040 1.421 0.693 1.421 1.492 0 0.001 0 0.001 0 0.002zM8.123 3.643c0-0.016 0.001-0.035 0.001-0.055 0-1.298-1.052-2.349-2.349-2.349s-2.349 1.052-2.349 2.349c0 1.297 1.052 2.349 2.349 2.349 0 0 0 0 0.001 0 1.278 0 2.318-1.021 2.349-2.292zM14.825 2.623h-4.808v2.003h4.808zM28.412 10.126v4.225c0 0.825-0.669 1.493-1.493 1.493h-25.425c-0.825 0-1.493-0.669-1.493-1.493v-4.225c0-0.825 0.669-1.493 1.493-1.493h25.498c0.793 0.040 1.421 0.693 1.421 1.492 0 0.001 0 0.001 0 0.002zM8.123 12.239c0-0.005 0-0.012 0-0.018 0-1.298-1.052-2.349-2.349-2.349s-2.349 1.052-2.349 2.349c0 1.298 1.052 2.349 2.349 2.349 0 0 0 0 0 0 1.291 0 2.339-1.042 2.349-2.33zM14.825 11.219h-4.808v2.040h4.808zM0 22.985v-4.207c0-0.825 0.669-1.493 1.493-1.493h25.498c0.825 0 1.493 0.669 1.493 1.493v4.207c0 0.825-0.669 1.493-1.493 1.493h-25.498c-0.825 0-1.493-0.669-1.493-1.493zM10.017 21.855h4.808v-2.003h-4.808zM3.424 20.835c0 1.298 1.052 2.349 2.349 2.349s2.349-1.052 2.349-2.349c0-1.298-1.052-2.349-2.349-2.349-1.29 0.010-2.332 1.058-2.332 2.349 0 0.013 0 0.026 0 0.038zM17.739 26.755h-2.040v-1.402h-2.95v1.402h-2.094c-0.493 0-0.892 0.4-0.892 0.892v3.315c0 0.493 0.4 0.892 0.892 0.892h7.103c0.493 0 0.892-0.4 0.892-0.892v-3.278c0-0.493-0.4-0.892-0.892-0.892z"></path>
</symbol>
<symbol id="icon-youtube" viewBox="0 0 32 32">
<title>youtube</title>
<path class="path1" fill="#da402d" d="M32 15.37c0-0.13 0-0.26 0-0.39v0c-0.006-8.832-7.167-15.99-16-15.99-8.837 0-16 7.163-16 16 0 0.004 0 0.007 0 0.011v-0.001c0 0.13 0 0.26 0 0.39s0 0.42 0 0.63c0 8.837 7.163 16 16 16s16-7.163 16-16c0-0.21 0-0.42 0-0.63zM25.56 16.73c-0.010 1.086-0.078 2.145-0.203 3.186-0.083 0.575-0.35 1.21-0.745 1.745-0.475 0.476-1.142 0.781-1.881 0.789-2.642 0.19-6.602 0.2-6.602 0.2s-4.9 0-6.41-0.19c-0.801-0.012-1.529-0.318-2.083-0.813-0.383-0.521-0.65-1.156-0.745-1.846-0.114-0.927-0.183-1.985-0.192-3.058l-0-1.463c0.010-1.086 0.078-2.145 0.203-3.186 0.083-0.575 0.35-1.21 0.745-1.745 0.475-0.476 1.142-0.781 1.881-0.789 2.642-0.19 6.602-0.19 6.602-0.19v0s4 0 6.6 0.19c0.74 0.008 1.407 0.312 1.89 0.8 0.387 0.524 0.654 1.159 0.748 1.849 0.114 0.927 0.183 1.985 0.192 3.058zM14.17 18.45l5.090-2.64-5.090-2.66z"></path>
</symbol>
<symbol id="icon-globe" viewBox="0 0 32 32">
<title>globe</title>
<path class="path1" fill="#3498db" d="M16 0c-8.8 0-16 7.2-16 16s7.2 16 16 16c8.8 0 16-7.2 16-16s-7.2-16-16-16v0zM27.6 22c-1 2-2.6 3.8-4.6 5v0c0.8-1.4 1.4-3.2 1.8-5h2.8zM21.8 22c-0.4 1.4-0.8 2.6-1.4 3.6-0.8 1.4-1.8 2.6-2.8 3v-6.6h4.2zM14.6 22v6.6c-1-0.6-2-1.6-2.8-3-0.6-1-1-2.2-1.4-3.6h4.2zM7.2 22c0.4 1.8 1 3.6 1.8 5v0c-2-1.2-3.6-3-4.6-5h2.8zM3.4 19c-0.2-1-0.4-2-0.4-3s0.2-2 0.4-3h3.4c-0.2 1-0.2 2-0.2 3s0 2 0.2 3h-3.4zM9.6 19c0-1 0-2 0-3s0-2 0.2-3h4.8v6h-5zM17.6 19v-6h4.8c0.2 1 0.2 2 0.2 3s0 2-0.2 3h-4.8zM25.4 19c0.2-1 0.2-2 0.2-3s0-2-0.2-3h3.4c0.2 1 0.4 2 0.4 3s-0.2 2-0.4 3h-3.4zM4.4 10c1-2 2.6-3.8 4.6-5v0c-0.8 1.4-1.4 3.2-1.8 5h-2.8zM10.2 10c0.4-1.4 0.8-2.6 1.4-3.6 0.8-1.4 1.8-2.4 3-3v6.6h-4.4zM17.6 10v-6.6c1 0.6 2 1.6 2.8 3 0.6 1 1 2.2 1.4 3.6h-4.2zM24.8 10c-0.4-1.8-1-3.6-1.8-5v0c2 1.2 3.6 3 4.6 5h-2.8z"></path>
</symbol>
<symbol id="icon-menu" viewBox="0 0 32 32">
<title>menu</title>
<path class="path1" d="M2 6h28v6h-28zM2 14h28v6h-28zM2 22h28v6h-28z"></path>
</symbol>
</defs>
</svg>
