<svg xmlns="http://www.w3.org/2000/svg" viewBox="0 0 32 32"><defs><style>.cls-1{fill:#da402d;}</style></defs><title>Asset 6</title><g id="Layer_2" data-name="Layer 2"><g id="Layer_1-2" data-name="Layer 1"><g id="youtube_circle" data-name="youtube circle"><path class="cls-1" d="M32,15.37c0-.13,0-.26,0-.39h0A16,16,0,0,0,0,15H0c0,.13,0,.26,0,.39s0,.42,0,.63a16,16,0,0,0,32,0c0-.21,0-.42,0-.63m-6.44,1.34a28.57,28.57,0,0,1-.19,3.05,4.08,4.08,0,0,1-.75,1.87,2.7,2.7,0,0,1-1.89.8c-2.64.19-6.6.2-6.6.2s-4.9,0-6.41-.19a3.2,3.2,0,0,1-2.08-.81,4.08,4.08,0,0,1-.75-1.87,28.52,28.52,0,0,1-.19-3.05V15.28a28.52,28.52,0,0,1,.19-3.05,4.07,4.07,0,0,1,.75-1.87,2.7,2.7,0,0,1,1.89-.8c2.64-.19,6.6-.19,6.6-.19h0s4,0,6.6.19a2.7,2.7,0,0,1,1.89.8,4.08,4.08,0,0,1,.75,1.87,28.57,28.57,0,0,1,.19,3.05ZM14.17,18.45l5.09-2.64-5.09-2.66Z"/></g></g></g></svg>