<svg xmlns="http://www.w3.org/2000/svg" xmlns:xlink="http://www.w3.org/1999/xlink" viewBox="0 0 119.82 50"><defs><style>.cls-1{fill:url(#linear-gradient);}.cls-2{fill:#fff;}</style><linearGradient id="linear-gradient" x1="84.11" x2="84.11" y2="50" gradientUnits="userSpaceOnUse"><stop offset="0" stop-color="#e33129"/><stop offset="1" stop-color="#be2428"/></linearGradient></defs><title>youtube</title><g id="Layer_2" data-name="Layer 2"><g id="Layer_1-2" data-name="Layer 1"><path id="lozenge" class="cls-1" d="M119.1,10.79s-.7-4.9-2.84-7.06a10.24,10.24,0,0,0-7.16-3c-10-.72-25-.72-25-.72h0s-15,0-25,.72a10.24,10.24,0,0,0-7.16,3c-2.14,2.16-2.84,7.06-2.84,7.06a107,107,0,0,0-.71,11.51v5.39a107,107,0,0,0,.71,11.51s.7,4.9,2.84,7.06c2.72,2.83,6.29,2.74,7.87,3,5.71.55,24.28.71,24.28.71s15,0,25-.74a10.24,10.24,0,0,0,7.16-3c2.14-2.16,2.84-7.06,2.84-7.06a107.16,107.16,0,0,0,.71-11.51V22.29A107.16,107.16,0,0,0,119.1,10.79Z"/><path id="u" class="cls-2" d="M44.72,40.46H40.18V37.83c-1.72,2-3.18,3-4.77,3A2.86,2.86,0,0,1,32.55,39a9.62,9.62,0,0,1-.5-3.51V16.31h4.54V35.92c.11.67.39.92,1,.92.87,0,1.66-.76,2.62-2.11V16.31h4.54Z"/><path id="o" class="cls-2" d="M28.7,24.2a9.62,9.62,0,0,0-1.43-5.74,6,6,0,0,0-5-2.33,5.73,5.73,0,0,0-5,2.33c-.93,1.22-1.43,3.18-1.43,5.76v8.59c0,2.57.44,4.34,1.38,5.55a6.33,6.33,0,0,0,5.08,2.52,6.4,6.4,0,0,0,5.12-2.52c.92-1.21,1.34-3,1.34-5.55Zm-4.54,9.09c.24,2.39-.5,3.58-1.91,3.58s-2.15-1.19-1.91-3.58V23.72c-.24-2.39.5-3.51,1.91-3.51s2.15,1.12,1.92,3.51Z"/><path id="y" class="cls-2" d="M10.76,27.31V40.46H6V27.31S1,11.18,0,8.18H5l3.36,12.6,3.34-12.6h5Z"/><path id="e" class="cls-2" d="M113.84,29.22V24.33a9.38,9.38,0,0,0-1.41-5.63,6.06,6.06,0,0,0-5.11-2.5,6.2,6.2,0,0,0-5.19,2.5,9.61,9.61,0,0,0-1.46,5.74v8.37a8.84,8.84,0,0,0,1.51,5.51,6.2,6.2,0,0,0,5.24,2.45,6,6,0,0,0,5.24-2.59,6.17,6.17,0,0,0,1-2.59,27.22,27.22,0,0,0,.15-2.82v-.68h-4.54c0,1.74,0,2.77,0,3a1.86,1.86,0,0,1-1.93,1.74c-1.49,0-2.11-1.11-2.1-3.32V29.22ZM105.22,23c0-2.23.61-2.84,2.06-2.84s2,.66,2,2.87v2.61h-4.07Z"/><path id="b" class="cls-2" d="M93.77,16.16c-1.59,0-3.18,1-4.57,2.7V8.42H84.9v32h4.3V38.05c1.45,1.79,3,2.72,4.56,2.72a3.55,3.55,0,0,0,3.56-2.7,18.39,18.39,0,0,0,.48-4.78V23.72A16.77,16.77,0,0,0,97.23,19,3.51,3.51,0,0,0,93.77,16.16Zm-.5,17.36c0,2.39-.56,3.31-1.81,3.31a3.33,3.33,0,0,1-2.26-1.09V21.24a3.36,3.36,0,0,1,2.25-1.09c1.25,0,1.81.7,1.81,3.09Z"/><path id="u-2" data-name="u" class="cls-2" d="M81.31,40.46H76.77V37.83c-1.72,2-3.18,3-4.77,3A2.86,2.86,0,0,1,69.14,39a9.62,9.62,0,0,1-.5-3.51V16.55h4.54V35.92c.11.67.39.92,1,.92.87,0,1.66-.76,2.62-2.11V16.55h4.54Z"/><polygon id="T" class="cls-2" points="64.09 40.46 59.31 40.46 59.31 12.96 54.29 12.96 54.29 8.42 69.35 8.42 69.35 12.96 64.09 12.96 64.09 40.46"/></g></g></svg>